<svg width="296" height="253" viewBox="0 0 296 253" fill="none" xmlns="http://www.w3.org/2000/svg">
<path d="M93.2809 123.025C92.5468 123.025 91.8295 122.788 91.2202 122.345C40.0183 85.0449 30.0939 49.1849 29.6596 47.6749C29.427 46.6675 29.5654 45.6018 30.0457 44.7029C30.526 43.804 31.3104 43.1424 32.2332 42.858C33.156 42.5737 34.1448 42.6887 34.9906 43.1789C35.8364 43.6691 36.4729 44.496 36.7656 45.4849C36.858 45.8149 46.5791 80.2049 95.3138 115.705C95.9719 116.183 96.4703 116.878 96.7355 117.687C97.0007 118.495 97.0186 119.375 96.7866 120.195C96.5546 121.016 96.085 121.734 95.4471 122.243C94.8092 122.753 94.0368 123.027 93.2439 123.025H93.2809Z" fill="#231F20"/>
<path d="M222.27 118.345C203.17 118.345 173.581 92.1048 169.811 88.6748C169.382 88.3605 169.018 87.9519 168.745 87.4756C168.471 86.9993 168.292 86.466 168.221 85.9103C168.15 85.3546 168.188 84.789 168.332 84.2501C168.476 83.7112 168.723 83.2111 169.058 82.7824C169.392 82.3536 169.806 82.0057 170.272 81.7613C170.739 81.517 171.248 81.3815 171.766 81.3638C172.284 81.3461 172.8 81.4466 173.28 81.6587C173.76 81.8708 174.193 82.1897 174.552 82.5948C181.496 88.7361 188.802 94.3814 196.424 99.4948C210.581 108.845 221.568 112.495 226.558 109.395C237.6 102.625 236.981 75.0848 235.798 65.0448C235.737 64.5235 235.772 63.9943 235.901 63.4875C236.029 62.9807 236.248 62.5062 236.546 62.0912C236.844 61.6761 237.214 61.3285 237.636 61.0684C238.058 60.8082 238.523 60.6405 239.005 60.5748C239.486 60.5092 239.975 60.5468 240.444 60.6857C240.912 60.8245 241.35 61.0618 241.734 61.384C242.117 61.7063 242.439 62.1071 242.679 62.5636C242.919 63.0202 243.074 63.5235 243.135 64.0448C243.854 71.152 243.962 78.316 243.459 85.4448C242.257 101.295 237.794 111.695 230.189 116.355C227.755 117.754 225.025 118.44 222.27 118.345Z" fill="#231F20"/>
<path d="M75.077 203.955C74.0967 203.964 73.1531 203.552 72.4539 202.808C71.7546 202.065 71.357 201.051 71.3484 199.99C71.3398 198.929 71.721 197.908 72.4081 197.151C73.0953 196.395 74.032 195.964 75.0123 195.955C86.2581 195.725 94.9257 192.095 100.784 185.135C110.57 173.515 109.507 156.395 109.498 156.225C109.462 155.7 109.521 155.172 109.673 154.671C109.825 154.171 110.067 153.708 110.385 153.309C110.702 152.909 111.089 152.582 111.524 152.344C111.958 152.107 112.432 151.964 112.917 151.925C113.402 151.886 113.89 151.95 114.353 152.115C114.815 152.279 115.243 152.541 115.612 152.884C115.981 153.228 116.284 153.647 116.503 154.117C116.722 154.587 116.854 155.1 116.891 155.625C116.946 156.465 118.175 176.375 106.264 190.525C98.9915 199.165 88.522 203.685 75.1601 203.955H75.077Z" fill="#231F20"/>
<path d="M214.332 195.655C213.493 195.654 212.68 195.345 212.025 194.778C211.37 194.211 210.913 193.42 210.728 192.535C204.602 163.215 166.734 162.265 166.374 162.255C165.888 162.247 165.409 162.136 164.963 161.927C164.518 161.719 164.114 161.418 163.776 161.041C163.093 160.279 162.718 159.256 162.733 158.195C162.748 157.134 163.151 156.123 163.855 155.384C164.558 154.645 165.504 154.239 166.485 154.255C174.18 154.602 181.786 156.172 189.059 158.915C204.879 164.965 214.868 175.985 217.954 190.775C218.17 191.806 218 192.888 217.48 193.784C216.961 194.68 216.134 195.317 215.182 195.555C214.904 195.625 214.618 195.659 214.332 195.655Z" fill="#231F20"/>
<path d="M145.989 252.945C170.501 252.945 190.371 249.538 190.371 245.335C190.371 241.132 170.501 237.725 145.989 237.725C121.477 237.725 101.607 241.132 101.607 245.335C101.607 249.538 121.477 252.945 145.989 252.945Z" fill="#E6E7E8"/>
<path d="M141.692 176.625C175.094 176.625 202.172 147.322 202.172 111.175C202.172 75.0278 175.094 45.7249 141.692 45.7249C108.29 45.7249 81.2128 75.0278 81.2128 111.175C81.2128 147.322 108.29 176.625 141.692 176.625Z" fill="#68E1FD"/>
<path d="M141.692 45.7248C153.654 45.7228 165.348 49.5597 175.295 56.7503C185.242 63.9408 192.996 74.162 197.575 86.1213C202.153 98.0805 203.352 111.241 201.02 123.937C198.687 136.634 192.928 148.297 184.47 157.451C176.012 166.606 165.236 172.84 153.504 175.366C141.772 177.893 129.611 176.597 118.559 171.644C107.507 166.69 98.0612 158.301 91.4152 147.538C84.7692 136.775 81.2219 124.12 81.2219 111.175C81.2219 93.8181 87.5926 77.1722 98.9327 64.8982C110.273 52.6243 125.654 45.7275 141.692 45.7248ZM141.692 44.7248C129.542 44.7248 117.665 48.6238 107.563 55.9287C97.4605 63.2336 89.5867 73.6164 84.9371 85.764C80.2875 97.9117 79.0709 111.279 81.4413 124.174C83.8116 137.07 89.6624 148.916 98.2537 158.213C106.845 167.511 117.791 173.842 129.708 176.407C141.624 178.973 153.976 177.656 165.201 172.624C176.426 167.593 186.02 159.072 192.77 148.139C199.521 137.207 203.123 124.353 203.123 111.205C203.111 93.5745 196.636 76.6697 185.119 64.2004C173.602 51.7311 157.984 44.716 141.692 44.6948V44.7248Z" fill="#231F20"/>
<path d="M126.593 95.955C126.225 95.955 125.873 95.797 125.613 95.5157C125.353 95.2344 125.207 94.8528 125.207 94.455C125.207 87.935 123.146 83.615 121.788 83.615C120.43 83.615 118.369 87.935 118.369 94.455C118.369 94.8528 118.223 95.2344 117.963 95.5157C117.703 95.797 117.35 95.955 116.983 95.955C116.615 95.955 116.263 95.797 116.003 95.5157C115.743 95.2344 115.597 94.8528 115.597 94.455C115.597 87.745 117.768 80.615 121.788 80.615C125.808 80.615 127.979 87.745 127.979 94.455C127.979 94.8528 127.833 95.2344 127.573 95.5157C127.313 95.797 126.961 95.955 126.593 95.955Z" fill="#231F20"/>
<path d="M166.42 95.955C166.052 95.955 165.7 95.797 165.44 95.5157C165.18 95.2344 165.034 94.8528 165.034 94.455C165.034 87.935 162.973 83.615 161.615 83.615C160.256 83.615 158.196 87.935 158.196 94.455C158.196 94.8528 158.05 95.2344 157.79 95.5157C157.53 95.797 157.177 95.955 156.81 95.955C156.442 95.955 156.089 95.797 155.83 95.5157C155.57 95.2344 155.424 94.8528 155.424 94.455C155.424 87.745 157.595 80.615 161.615 80.615C165.634 80.615 167.806 87.745 167.806 94.455C167.806 94.8528 167.66 95.2344 167.4 95.5157C167.14 95.797 166.787 95.955 166.42 95.955Z" fill="#231F20"/>
<path d="M175.383 124.885C175.383 140.145 160.303 152.505 141.692 152.505C123.082 152.505 108.001 140.145 108.001 124.885H175.383Z" fill="#231F20"/>
<path d="M229.431 79.0849C225.319 76.3949 222.778 66.3949 223.462 60.9049C224.146 55.4149 226.641 56.1949 229.385 55.6749C229.099 53.4249 228.877 50.8949 230.189 49.1249C230.911 48.2275 231.829 47.54 232.86 47.1249C238.579 44.4921 245.017 44.3488 250.832 46.7249C251.945 47.116 252.949 47.8038 253.752 48.7249C254.41 49.6953 254.85 50.8183 255.037 52.0049C257.412 63.1649 252.329 70.4249 251.128 80.8549L239.503 79.9749C236.907 79.7849 231.815 80.5249 229.533 79.1249C229.497 79.1169 229.463 79.1034 229.431 79.0849Z" fill="white"/>
<path d="M251.128 81.395L239.504 80.525C238.764 80.465 237.776 80.525 236.731 80.525C234.079 80.595 231.067 80.665 229.339 79.615L229.219 79.545C224.719 76.545 222.362 66.175 223.018 60.855C223.647 55.855 225.791 55.615 228.054 55.355L228.886 55.255C228.618 52.935 228.544 50.585 229.856 48.805C230.633 47.8621 231.614 47.1438 232.712 46.715C238.543 44.0139 245.115 43.8669 251.045 46.305C252.233 46.7169 253.305 47.45 254.159 48.435C254.865 49.4688 255.337 50.6677 255.536 51.935C257.088 59.225 255.536 64.815 253.882 70.735C252.862 74.065 252.11 77.4845 251.636 80.955C251.62 81.085 251.558 81.2033 251.464 81.2852C251.369 81.3672 251.249 81.4065 251.128 81.395ZM238.348 79.455C238.774 79.455 239.18 79.455 239.531 79.455L250.712 80.295C251.204 76.9325 251.946 73.6184 252.93 70.385C254.547 64.605 256.072 59.145 254.566 52.115C254.397 51.0063 253.992 49.9553 253.383 49.045C252.631 48.2014 251.698 47.5726 250.666 47.215C244.97 44.8749 238.657 45.0147 233.054 47.605C232.103 47.9853 231.249 48.6018 230.559 49.405C229.385 50.985 229.57 53.315 229.856 55.565C229.875 55.6975 229.845 55.8326 229.772 55.9411C229.7 56.0497 229.59 56.1229 229.468 56.145C229.006 56.225 228.544 56.285 228.119 56.335C225.994 56.575 224.423 56.745 223.933 60.935C223.231 66.555 225.892 76.125 229.672 78.605L229.764 78.665C231.261 79.585 234.255 79.505 236.667 79.445L238.348 79.455Z" fill="#231F20"/>
<path d="M228.637 83.81L253.3 83.0093C255.337 82.9432 256.938 81.1033 256.877 78.8997L256.862 78.3697C256.801 76.166 255.101 74.4332 253.065 74.4993L228.401 75.3C226.365 75.3662 224.764 77.2061 224.825 79.4098L224.84 79.9397C224.901 82.1434 226.601 83.8762 228.637 83.81Z" fill="white"/>
<path d="M228.47 85.0148C227.392 85.0103 226.357 84.5535 225.583 83.7404C224.809 82.9274 224.357 81.8213 224.321 80.6548V80.1248C224.286 78.9302 224.691 77.7695 225.446 76.8976C226.202 76.0257 227.246 75.514 228.35 75.4748L253.004 74.6248C253.551 74.6031 254.096 74.6989 254.608 74.9065C255.12 75.1142 255.59 75.4297 255.989 75.8348C256.791 76.6536 257.263 77.782 257.301 78.9748V79.5148C257.319 80.1054 257.23 80.6941 257.038 81.2471C256.846 81.8002 256.554 82.3068 256.181 82.7378C255.808 83.1689 255.359 83.516 254.862 83.7591C254.364 84.0023 253.827 84.1368 253.281 84.1548L228.618 85.0148H228.47ZM228.359 76.5049C227.51 76.5362 226.706 76.9304 226.124 77.6013C225.542 78.2722 225.23 79.1651 225.254 80.0848V80.6248C225.268 81.0806 225.364 81.5291 225.537 81.9447C225.71 82.3602 225.958 82.7348 226.265 83.0468C226.572 83.3589 226.933 83.6023 227.328 83.7633C227.722 83.9242 228.141 83.9995 228.563 83.9848L253.226 83.1248C253.647 83.112 254.061 83.0089 254.445 82.8216C254.83 82.6342 255.175 82.3664 255.463 82.0335C255.751 81.7006 255.975 81.3093 256.122 80.8821C256.27 80.4549 256.337 80.0004 256.321 79.5448V79.0148C256.292 78.0953 255.928 77.2256 255.308 76.5959C254.688 75.9662 253.863 75.6279 253.013 75.6548L228.35 76.5049H228.359Z" fill="#231F20"/>
<path d="M100.646 113.025C104.708 113.025 108.001 110.76 108.001 107.965C108.001 105.17 104.708 102.905 100.646 102.905C96.5832 102.905 93.29 105.17 93.29 107.965C93.29 110.76 96.5832 113.025 100.646 113.025Z" fill="white"/>
<path d="M182.748 113.025C186.81 113.025 190.103 110.76 190.103 107.965C190.103 105.17 186.81 102.905 182.748 102.905C178.686 102.905 175.392 105.17 175.392 107.965C175.392 110.76 178.686 113.025 182.748 113.025Z" fill="white"/>
<path d="M229.385 55.675C229.385 55.675 245.288 53.245 243.68 57.985C242.072 62.725 230.679 65.255 230.679 65.255C230.679 65.255 240.843 62.255 243.227 70.525" fill="white"/>
<path d="M243.228 71.0348C243.126 71.0354 243.028 71.0007 242.946 70.9358C242.865 70.871 242.805 70.7795 242.775 70.6748C241.851 67.4748 239.587 65.6748 236.038 65.3048C234.524 65.1702 233 65.2644 231.51 65.5848L230.771 65.7648C230.657 65.7755 230.542 65.7414 230.449 65.6686C230.356 65.5958 230.29 65.4892 230.263 65.3681C230.236 65.247 230.25 65.1196 230.303 65.0089C230.355 64.8982 230.443 64.8116 230.549 64.7648L231.159 64.6248C233.469 64.0348 241.943 61.6248 243.237 57.8148C243.316 57.6575 243.35 57.4778 243.333 57.2994C243.317 57.1209 243.251 56.952 243.144 56.8148C241.804 55.0248 234.033 55.4648 229.45 56.1648C229.385 56.1851 229.317 56.19 229.25 56.1793C229.183 56.1686 229.119 56.1425 229.063 56.1027C229.006 56.0629 228.958 56.0105 228.922 55.9489C228.885 55.8872 228.862 55.8179 228.852 55.7455C228.843 55.6732 228.848 55.5995 228.867 55.5294C228.887 55.4594 228.92 55.3947 228.964 55.3396C229.008 55.2845 229.063 55.2404 229.125 55.2103C229.186 55.1801 229.253 55.1646 229.32 55.1648C230.586 54.9648 241.768 53.3548 243.884 56.1648C244.091 56.4413 244.224 56.7742 244.268 57.1269C244.312 57.4797 244.265 57.8388 244.133 58.1648C243.209 60.9848 239.152 63.0148 235.761 64.2648C238.838 64.4948 242.377 65.8148 243.68 70.3648C243.7 70.4291 243.708 70.4972 243.704 70.5649C243.699 70.6326 243.683 70.6987 243.654 70.7592C243.626 70.8198 243.586 70.8735 243.539 70.9174C243.491 70.9613 243.435 70.9944 243.375 71.0148C243.328 71.0307 243.278 71.0374 243.228 71.0348Z" fill="#231F20"/>
<path d="M53.7498 60.5949C56.3279 56.2049 54.489 46.0249 51.6152 41.4349C48.7414 36.8449 46.8194 38.7249 44.1488 39.5949C43.5205 37.4249 42.6426 35.0549 40.7483 34.0949C39.7323 33.6655 38.6348 33.511 37.5511 33.6449C31.3475 34.043 25.525 37.0162 21.2969 41.9449C20.4575 42.823 19.8375 43.9171 19.495 45.1249C19.304 46.3125 19.3737 47.5319 19.6983 48.6849C22.1563 59.8149 29.6596 63.8649 35.0654 72.5949L45.1099 66.2149C47.3553 64.7849 52.2158 62.9949 53.6851 60.6449L53.7498 60.5949Z" fill="white"/>
<path d="M35.0653 73.1449C34.9866 73.1456 34.909 73.1248 34.8396 73.0847C34.7702 73.0445 34.7112 72.9861 34.668 72.9149C32.8144 70.0355 30.7337 67.3354 28.4491 64.8449C24.5311 60.3349 20.8441 56.0849 19.2085 48.8449C18.8691 47.616 18.7995 46.3182 19.0052 45.0549C19.3647 43.7417 20.0297 42.5504 20.9365 41.5949C25.2434 36.5595 31.1845 33.5241 37.5141 33.1249C38.6743 32.9916 39.8472 33.1631 40.9331 33.6249C42.8459 34.6249 43.7053 36.7349 44.4537 38.9349L45.2392 38.6249C47.383 37.7649 49.3974 36.9449 52.0125 41.1149C54.7847 45.5649 56.9655 56.0349 54.1563 60.8349L54.0824 60.9649C52.9735 62.7349 50.2476 64.1149 47.8358 65.3449C46.9117 65.8249 45.9877 66.2749 45.3501 66.6849L35.3056 73.0749C35.2333 73.1226 35.15 73.1469 35.0653 73.1449ZM38.318 34.1449H37.5695C31.4864 34.5349 25.7781 37.4552 21.6388 42.2949C20.8535 43.1256 20.275 44.1575 19.957 45.2949C19.7932 46.3974 19.8627 47.5258 20.1603 48.5949C21.7127 55.5949 25.3165 59.7649 29.1421 64.1649C31.3536 66.5733 33.3808 69.1718 35.2039 71.9349L44.8696 65.7949C45.5534 65.3649 46.4682 64.8949 47.4384 64.4049C49.6192 63.2949 52.3267 61.9249 53.297 60.4049L53.3524 60.3049C55.718 56.3049 54.1563 46.4049 51.2178 41.7149C49.0648 38.1949 47.5863 38.7849 45.5811 39.5949C45.1653 39.7649 44.731 39.9349 44.2874 40.0849C44.1685 40.1231 44.0406 40.1101 43.9304 40.0486C43.8202 39.9871 43.7362 39.8819 43.696 39.7549C43.0307 37.5949 42.236 35.4149 40.5357 34.5949C39.8352 34.2723 39.0791 34.1155 38.318 34.1349V34.1449Z" fill="#231F20"/>
<path d="M53.4399 57.2837L31.0171 68.3985C29.1658 69.3161 28.3525 71.6842 29.2004 73.6876L29.4044 74.1695C30.2524 76.1729 32.4406 77.0531 34.2919 76.1354L56.7146 65.0207C58.5659 64.103 59.3793 61.735 58.5313 59.7315L58.3273 59.2497C57.4794 57.2462 55.2912 56.366 53.4399 57.2837Z" fill="white"/>
<path d="M32.7644 77.0048C32.2687 77.0025 31.7774 76.9043 31.3136 76.7148C30.7995 76.5131 30.3278 76.2022 29.9264 75.8003C29.5249 75.3985 29.2017 74.9138 28.9758 74.3748L28.7725 73.8848C28.5414 73.3454 28.4112 72.7618 28.3893 72.1677C28.3674 71.5736 28.4543 70.9807 28.6449 70.4231C28.8356 69.8655 29.1263 69.3541 29.5002 68.9185C29.8742 68.4829 30.324 68.1316 30.8239 67.8848L53.2507 56.7948C53.7494 56.5461 54.2885 56.4063 54.8371 56.3833C55.3858 56.3603 55.9333 56.4546 56.4483 56.6607C56.9632 56.8669 57.4355 57.181 57.8382 57.5849C58.2409 57.9889 58.5661 58.4748 58.7951 59.0148L58.9984 59.5048C59.2294 60.0443 59.3596 60.6278 59.3815 61.2219C59.4034 61.816 59.3165 62.409 59.1259 62.9666C58.9352 63.5242 58.6446 64.0356 58.2706 64.4712C57.8967 64.9068 57.4468 65.2581 56.9469 65.5048L34.4924 76.5948C33.9499 76.8629 33.3608 77.0027 32.7644 77.0048ZM54.9417 57.4248C54.483 57.4255 54.0295 57.5311 53.6111 57.7348L31.2212 68.8548C30.8384 69.0446 30.4938 69.3141 30.2071 69.648C29.9205 69.9818 29.6975 70.3735 29.5508 70.8007C29.404 71.2278 29.3365 71.6821 29.352 72.1375C29.3675 72.5929 29.4657 73.0405 29.6411 73.4548L29.8444 73.9448C30.0197 74.3592 30.2687 74.7321 30.5773 75.0423C30.8858 75.3524 31.2477 75.5938 31.6424 75.7526C32.0371 75.9114 32.4569 75.9845 32.8777 75.9677C33.2985 75.9509 33.7122 75.8446 34.095 75.6548L56.5311 64.5348C57.301 64.1478 57.8982 63.4469 58.1925 62.5852C58.4868 61.7234 58.4543 60.7707 58.102 59.9348L57.8987 59.4448C57.642 58.8408 57.2303 58.3293 56.7126 57.9711C56.1949 57.613 55.5931 57.4234 54.9787 57.4248H54.9417Z" fill="#231F20"/>
<path d="M44.1488 39.595C44.1488 39.595 28.9203 45.085 32.3024 48.595C35.6844 52.105 46.9394 48.835 46.9394 48.835C46.9394 48.835 36.5993 50.995 37.8745 59.595" fill="white"/>
<path d="M37.8745 60.0548C37.7618 60.0543 37.6529 60.011 37.5667 59.9324C37.4806 59.8538 37.4227 59.7449 37.4032 59.6248C36.7009 54.9148 39.3252 52.0248 42.0235 50.3448C38.4751 50.8548 34.0304 50.9748 32.016 48.9148C31.7668 48.6885 31.5792 48.3929 31.4734 48.06C31.3676 47.727 31.3475 47.3692 31.4153 47.0248C32.1453 43.4648 42.8274 39.5248 44.0379 39.0848C44.158 39.0437 44.2883 39.0552 44.4006 39.1169C44.513 39.1786 44.5984 39.2856 44.6386 39.4148C44.6589 39.4785 44.6673 39.5459 44.6634 39.6132C44.6596 39.6804 44.6434 39.7461 44.6159 39.8065C44.5884 39.867 44.5501 39.9209 44.5033 39.9653C44.4564 40.0096 44.4019 40.0434 44.3429 40.0649C39.9444 41.6449 32.8106 44.9949 32.3301 47.2449C32.2957 47.4156 32.3079 47.5936 32.3653 47.7569C32.4228 47.9203 32.5229 48.0621 32.6536 48.1648C35.4257 50.9648 43.9548 49.0248 46.2557 48.4348C46.6253 48.3248 46.8471 48.2748 46.8655 48.2748C46.9865 48.2507 47.1115 48.2777 47.2146 48.3502C47.3178 48.4228 47.3913 48.5354 47.42 48.6648C47.4351 48.7292 47.4382 48.7962 47.4292 48.8619C47.4201 48.9276 47.3991 48.9907 47.3673 49.0475C47.3354 49.1042 47.2935 49.1536 47.2438 49.1926C47.1942 49.2317 47.1378 49.2596 47.0781 49.2748L46.3481 49.4748C44.8832 49.9068 43.4807 50.5563 42.1806 51.4048C39.1497 53.4048 37.8652 56.1449 38.3642 59.4649C38.3829 59.6 38.3517 59.7376 38.2773 59.848C38.203 59.9584 38.0914 60.0327 37.9669 60.0548H37.8745Z" fill="#231F20"/>
<path d="M218.472 169.405C218.472 169.405 201.645 173.675 197.782 190.085L219.96 223.155L250.038 177.735L227.86 185.945L218.472 169.405Z" fill="white"/>
<path d="M219.932 223.675C219.857 223.674 219.783 223.654 219.716 223.618C219.649 223.582 219.59 223.529 219.544 223.465L197.367 190.385C197.326 190.324 197.298 190.253 197.285 190.179C197.272 190.105 197.275 190.028 197.293 189.955C201.183 173.435 218.167 168.955 218.343 168.905C218.439 168.879 218.54 168.888 218.632 168.929C218.723 168.971 218.8 169.043 218.851 169.135L227.981 185.325L249.834 177.245C249.93 177.207 250.035 177.203 250.133 177.235C250.231 177.267 250.317 177.333 250.377 177.422C250.438 177.511 250.47 177.619 250.468 177.73C250.467 177.84 250.433 177.947 250.37 178.035L220.292 223.455C220.228 223.595 220.08 223.725 219.932 223.675ZM198.3 189.975L219.932 222.275L248.753 178.745L227.953 186.435C227.85 186.475 227.737 186.475 227.634 186.434C227.532 186.394 227.445 186.317 227.389 186.215L218.25 170.005C215.912 170.705 201.839 175.505 198.3 189.975Z" fill="#231F20"/>
<path d="M221.161 224.385C212.955 217.385 221.974 206.385 230.586 193.945C236.778 185.045 248.254 174.155 253.808 178.865C260.193 184.285 230.91 232.665 221.161 224.385Z" fill="#D1D3D4"/>
<path d="M223.785 225.855C222.729 225.873 221.698 225.499 220.865 224.795C212.983 218.105 220.292 207.735 228.027 196.795L230.18 193.595C235.234 186.335 243.44 178.115 249.529 177.255C250.321 177.102 251.133 177.127 251.915 177.328C252.697 177.529 253.433 177.903 254.076 178.425C255 179.225 255.351 180.755 255.055 182.975C253.688 193.425 237.591 220.385 226.696 225.125C225.777 225.565 224.789 225.812 223.785 225.855ZM221.457 223.985C222.676 224.985 224.33 225.095 226.373 224.205C236.14 219.955 252.699 193.825 254.14 182.865C254.307 181.615 254.335 179.965 253.521 179.275C252.98 178.832 252.36 178.515 251.7 178.343C251.04 178.171 250.355 178.148 249.687 178.275C244.142 179.065 236.057 186.895 230.965 194.215L228.784 197.335C221.022 208.335 214.314 217.875 221.457 223.945V223.985Z" fill="#231F20"/>
<path d="M81.61 210.815L78.2833 185.815C68.4439 188.645 58.3206 190.156 48.1406 190.315C48.1406 190.315 42.7904 229.645 45.2391 229.775C47.6879 229.905 56.6974 213.035 56.6974 213.035C56.6974 213.035 64.3486 216.595 81.61 210.815Z" fill="white"/>
<path d="M45.23 230.285C45.1218 230.278 45.0163 230.245 44.9207 230.19C44.825 230.135 44.7414 230.058 44.6755 229.965C42.735 227.425 46.8378 196.425 47.6787 190.245C47.6923 190.123 47.747 190.011 47.8322 189.93C47.9174 189.848 48.0272 189.804 48.1407 189.805C58.2844 189.64 68.372 188.143 78.1818 185.345C78.2479 185.322 78.318 185.315 78.3868 185.326C78.4556 185.336 78.5214 185.363 78.5792 185.405C78.6374 185.444 78.6868 185.496 78.7236 185.559C78.7604 185.621 78.7837 185.691 78.7917 185.765L82.1183 210.765C82.1326 210.887 82.1072 211.011 82.0465 211.115C81.9858 211.219 81.8936 211.296 81.7856 211.335C66.5202 216.465 58.6842 214.335 56.9193 213.695C54.5352 218.055 47.7342 230.285 45.23 230.285ZM48.5196 190.825C46.1633 208.305 44.2689 227.425 45.3316 229.255C46.8101 228.975 51.9941 220.765 56.254 212.785C56.3123 212.676 56.4055 212.593 56.516 212.553C56.6265 212.512 56.7469 212.516 56.8546 212.565C56.9378 212.565 64.515 215.935 81.0741 210.455L77.8861 186.455C68.2854 189.131 58.4313 190.597 48.5196 190.825Z" fill="#231F20"/>
<path d="M78.2835 185.835C78.2835 185.835 75.077 189.225 75.077 199.955C75.077 205.745 78.7733 213.265 81.6101 210.815C84.447 208.365 85.8515 185.825 78.2835 185.835Z" fill="#231F20"/>
<path d="M80.4827 211.815C80.1008 211.808 79.7251 211.709 79.383 211.525C76.9435 210.255 74.6241 204.635 74.6241 199.955C74.6241 189.135 77.8399 185.615 77.9785 185.465C78.0709 185.371 78.1938 185.321 78.3204 185.325C80.4919 185.325 82.1829 186.995 83.2179 190.155C85.3524 196.715 84.2343 209.215 81.9334 211.215C81.5303 211.594 81.0165 211.806 80.4827 211.815ZM78.5237 186.355C77.9507 187.125 75.5852 190.845 75.5852 199.955C75.5852 204.215 77.6735 209.485 79.7989 210.595C80.0405 210.74 80.3176 210.8 80.5922 210.768C80.8668 210.736 81.1254 210.612 81.3328 210.415C82.9776 208.985 84.5208 197.265 82.3123 190.495C81.4067 187.855 80.15 186.465 78.4959 186.355H78.5237Z" fill="#231F20"/>
<path d="M190.371 40.0949C190.278 40.0939 190.186 40.0632 190.108 40.0066C190.031 39.9501 189.97 39.8701 189.933 39.7765C189.897 39.6829 189.887 39.5799 189.904 39.4801C189.921 39.3804 189.965 39.2882 190.03 39.2149L210.359 16.5549C210.403 16.5062 210.455 16.4676 210.513 16.4411C210.571 16.4147 210.633 16.4011 210.696 16.4011C210.759 16.4011 210.821 16.4147 210.879 16.4411C210.937 16.4676 210.989 16.5062 211.033 16.5549C211.122 16.6522 211.172 16.7833 211.172 16.9199C211.172 17.0565 211.122 17.1876 211.033 17.2849L190.704 39.9449C190.661 39.9928 190.609 40.0307 190.552 40.0565C190.495 40.0822 190.433 40.0953 190.371 40.0949Z" fill="#D1D3D4"/>
<path d="M146.507 28.7649C146.384 28.7625 146.267 28.7093 146.179 28.6163C146.091 28.5234 146.04 28.3976 146.035 28.2649L144.982 0.594933C144.979 0.526634 144.989 0.458477 145.011 0.39436C145.033 0.330244 145.066 0.271426 145.109 0.221272C145.152 0.171118 145.204 0.130611 145.261 0.102069C145.319 0.0735267 145.381 0.0575088 145.444 0.0549323C145.569 0.0547151 145.69 0.106419 145.781 0.199414C145.872 0.292409 145.927 0.419631 145.934 0.554932L147.015 28.2249C147.017 28.3622 146.971 28.4951 146.884 28.5959C146.798 28.6966 146.679 28.7572 146.553 28.7649H146.507Z" fill="#D1D3D4"/>
<path d="M87.6903 48.965C87.6247 48.9662 87.5596 48.9526 87.4991 48.9251C87.4387 48.8975 87.3842 48.8566 87.3392 48.805L62.1125 19.135C62.0612 19.0871 62.0199 19.028 61.9912 18.9616C61.9626 18.8952 61.9472 18.823 61.9461 18.7497C61.945 18.6765 61.9583 18.6038 61.985 18.5364C62.0117 18.4691 62.0512 18.4086 62.101 18.359C62.1508 18.3093 62.2098 18.2716 62.274 18.2483C62.3382 18.2251 62.4062 18.2168 62.4736 18.2239C62.541 18.2311 62.6062 18.2536 62.665 18.29C62.7238 18.3264 62.7748 18.3758 62.8147 18.435L88.0415 48.105C88.1301 48.2022 88.1797 48.3334 88.1797 48.47C88.1797 48.6065 88.1301 48.7377 88.0415 48.8349C87.9941 48.8812 87.9386 48.9166 87.8782 48.9389C87.8179 48.9613 87.7539 48.9701 87.6903 48.965Z" fill="#D1D3D4"/>
<path d="M0.348527 135.265C0.248119 135.234 0.159788 135.168 0.0969021 135.078C0.0340163 134.988 0 134.878 0 134.765C0 134.652 0.0340163 134.542 0.0969021 134.452C0.159788 134.362 0.248119 134.296 0.348527 134.265L62.4543 129.865C62.5241 129.838 62.5987 129.829 62.6722 129.839C62.7456 129.849 62.8161 129.877 62.878 129.92C62.9398 129.964 62.9915 130.023 63.0289 130.092C63.0663 130.161 63.0885 130.239 63.0937 130.319C63.0988 130.399 63.0869 130.479 63.0587 130.553C63.0306 130.627 62.987 130.693 62.9314 130.746C62.8757 130.799 62.8096 130.837 62.7381 130.858C62.6665 130.878 62.5916 130.881 62.519 130.865L0.41321 135.265H0.348527Z" fill="#D1D3D4"/>
<path d="M33.245 177.135C33.1522 177.137 33.0612 177.108 32.9837 177.052C32.9062 176.997 32.846 176.918 32.8107 176.825C32.7611 176.699 32.7595 176.557 32.8063 176.43C32.853 176.302 32.9442 176.2 33.0602 176.145L58.5642 164.535C58.6765 164.502 58.796 164.514 58.9006 164.569C59.0053 164.625 59.0878 164.719 59.133 164.835C59.1781 164.951 59.1828 165.081 59.1462 165.201C59.1096 165.32 59.0341 165.421 58.9338 165.485L33.4298 177.095C33.3719 177.123 33.3086 177.137 33.245 177.135Z" fill="#D1D3D4"/>
<path d="M232.536 132.015C232.426 132.014 232.319 131.972 232.235 131.895C232.15 131.819 232.093 131.712 232.074 131.595C232.062 131.529 232.062 131.46 232.075 131.394C232.087 131.328 232.112 131.265 232.147 131.209C232.183 131.153 232.228 131.106 232.28 131.069C232.333 131.032 232.391 131.007 232.453 130.995L295.437 117.775C295.497 117.76 295.56 117.759 295.621 117.772C295.682 117.784 295.741 117.81 295.792 117.847C295.844 117.885 295.889 117.933 295.923 117.989C295.957 118.045 295.98 118.109 295.991 118.175C296.015 118.31 295.989 118.45 295.918 118.565C295.847 118.679 295.737 118.758 295.612 118.785L232.628 132.005L232.536 132.015Z" fill="#D1D3D4"/>
<path d="M275.736 169.925H275.616L236.205 158.775C236.138 158.765 236.073 158.739 236.016 158.7C235.959 158.661 235.91 158.609 235.872 158.548C235.835 158.487 235.809 158.419 235.798 158.346C235.787 158.274 235.79 158.2 235.807 158.129C235.824 158.058 235.855 157.992 235.897 157.935C235.939 157.878 235.992 157.831 236.053 157.797C236.113 157.764 236.179 157.745 236.247 157.741C236.314 157.737 236.382 157.748 236.445 157.775L275.856 168.925C275.955 168.967 276.039 169.045 276.093 169.144C276.148 169.244 276.17 169.361 276.156 169.476C276.142 169.59 276.093 169.697 276.017 169.778C275.941 169.86 275.842 169.911 275.736 169.925Z" fill="#D1D3D4"/>
<path d="M111.753 28.765C111.654 28.7657 111.558 28.732 111.478 28.669C111.398 28.606 111.339 28.517 111.309 28.415L107.558 17.085C107.536 17.0214 107.526 16.9536 107.528 16.8858C107.531 16.8179 107.546 16.7513 107.573 16.6898C107.599 16.6283 107.637 16.5732 107.684 16.5278C107.73 16.4823 107.785 16.4474 107.844 16.425C107.963 16.3824 108.093 16.3908 108.206 16.4485C108.32 16.5061 108.408 16.6087 108.454 16.735L112.206 28.075C112.247 28.2037 112.241 28.345 112.187 28.4685C112.134 28.5919 112.037 28.6876 111.919 28.735L111.753 28.765Z" fill="#D1D3D4"/>
<path d="M45.997 103.425C45.9361 103.439 45.8731 103.439 45.8122 103.425L27.0169 94.9648C26.9015 94.9117 26.8099 94.812 26.7615 94.6868C26.7132 94.5616 26.712 94.421 26.7581 94.2948C26.809 94.1692 26.903 94.0699 27.0201 94.0177C27.1373 93.9655 27.2686 93.9645 27.3865 94.0148L46.1818 102.475C46.2971 102.528 46.3888 102.628 46.4371 102.753C46.4855 102.878 46.4867 103.019 46.4405 103.145C46.3978 103.231 46.3337 103.303 46.2554 103.353C46.1771 103.402 46.0876 103.427 45.997 103.425Z" fill="#D1D3D4"/>
</svg>
