<svg width="278" height="233" viewBox="0 0 278 233" fill="none" xmlns="http://www.w3.org/2000/svg">
<path d="M34.8149 152.371V158.831L114.025 231.911L277.185 176.031V169.651L34.8149 152.371Z" fill="#231F20"/>
<path d="M113.995 232.411C113.869 232.411 113.748 232.365 113.655 232.281L34.4749 159.201C34.4249 159.153 34.385 159.096 34.3576 159.032C34.3301 158.969 34.3156 158.9 34.3149 158.831V152.371C34.3158 152.303 34.3304 152.237 34.3579 152.175C34.3854 152.113 34.4252 152.057 34.4749 152.011C34.5218 151.962 34.5799 151.924 34.6442 151.902C34.7085 151.879 34.7773 151.872 34.8449 151.881L277.215 169.151C277.342 169.159 277.462 169.215 277.549 169.308C277.637 169.401 277.685 169.524 277.685 169.651V176.031C277.683 176.135 277.649 176.235 277.588 176.319C277.527 176.403 277.443 176.467 277.345 176.501L114.185 232.381L113.995 232.411ZM35.2849 158.611L114.115 231.341L276.655 175.671V170.121L35.3149 152.911L35.2849 158.611Z" fill="#231F20"/>
<path d="M34.8149 152.371L0.804871 35.5712L168.655 1.09119L192.575 103.861L34.8149 152.371Z" fill="white"/>
<path d="M34.8149 152.871C34.7313 152.87 34.649 152.85 34.5749 152.811C34.5164 152.78 34.4648 152.738 34.4235 152.686C34.3823 152.635 34.3521 152.575 34.3349 152.511L0.334876 35.7112C0.315828 35.6463 0.310436 35.5781 0.319041 35.511C0.327647 35.4439 0.350062 35.3792 0.384875 35.3212C0.421295 35.2614 0.469213 35.2094 0.525855 35.1682C0.582497 35.127 0.646742 35.0974 0.714877 35.0812L168.555 0.601206C168.619 0.586549 168.685 0.584803 168.749 0.596068C168.813 0.607332 168.875 0.631381 168.93 0.666796C168.985 0.702211 169.032 0.748276 169.069 0.802275C169.106 0.856274 169.132 0.917112 169.145 0.981207L193.065 103.741C193.096 103.864 193.078 103.995 193.014 104.105C192.951 104.215 192.847 104.296 192.725 104.331L34.9949 152.851C34.9373 152.872 34.8756 152.879 34.8149 152.871ZM1.43487 35.9612L35.1549 151.751L191.995 103.501L168.275 1.68121L1.43487 35.9612Z" fill="#231F20"/>
<path d="M39.6949 142.781L9.42487 41.9212L162.675 9.21118L184.655 100.291L39.6949 142.781Z" fill="white"/>
<path d="M39.7049 143.281C39.5963 143.283 39.4902 143.248 39.4033 143.183C39.3165 143.118 39.2537 143.026 39.2249 142.921L8.99488 42.0613C8.96818 41.9997 8.95441 41.9333 8.95441 41.8663C8.95441 41.7992 8.96818 41.7328 8.99488 41.6713C9.0304 41.6107 9.07805 41.5581 9.13483 41.5168C9.19162 41.4755 9.25632 41.4464 9.32488 41.4313L162.575 8.72125C162.703 8.69704 162.836 8.72294 162.946 8.79364C163.055 8.86433 163.134 8.97443 163.165 9.10125L185.165 100.171C185.196 100.296 185.178 100.428 185.115 100.539C185.052 100.651 184.948 100.734 184.825 100.771L39.8249 143.261L39.7049 143.281ZM10.0649 42.3013L40.0649 142.161L184.065 99.9413L162.305 9.80125L10.0649 42.3013Z" fill="#231F20"/>
<path d="M192.575 103.861L34.8149 152.371L114.125 223.571L277.185 169.651L192.575 103.861Z" fill="white"/>
<path d="M114.125 224.071C114.003 224.069 113.886 224.023 113.795 223.941L34.4848 152.751C34.4189 152.693 34.3696 152.618 34.342 152.534C34.3145 152.45 34.3096 152.36 34.3279 152.274C34.3461 152.188 34.387 152.108 34.4461 152.042C34.5053 151.977 34.5808 151.928 34.6648 151.901L192.425 103.381C192.502 103.356 192.585 103.35 192.665 103.364C192.745 103.378 192.82 103.411 192.885 103.461L277.495 169.251C277.564 169.309 277.617 169.383 277.648 169.467C277.68 169.552 277.689 169.642 277.675 169.731C277.662 169.821 277.624 169.905 277.566 169.974C277.508 170.043 277.431 170.094 277.345 170.121L114.285 224.041C114.234 224.062 114.18 224.072 114.125 224.071ZM35.8048 152.591L114.245 223.001L276.135 169.501L192.475 104.441L35.8048 152.591Z" fill="#231F20"/>
<path d="M189.965 113.031L53.4849 157.471L89.8049 189.421L230.215 142.781L189.965 113.031Z" fill="white"/>
<path d="M89.8049 189.921C89.6829 189.919 89.5658 189.873 89.4749 189.791L53.1549 157.851C53.0871 157.793 53.0363 157.718 53.0081 157.633C52.9799 157.549 52.9753 157.458 52.9949 157.371C53.013 157.286 53.0529 157.207 53.1108 157.142C53.1686 157.077 53.2424 157.029 53.3249 157.001L189.815 112.551C189.89 112.528 189.97 112.522 190.048 112.534C190.126 112.546 190.2 112.576 190.265 112.621L230.515 142.381C230.588 142.436 230.645 142.509 230.678 142.594C230.712 142.679 230.721 142.771 230.705 142.861C230.693 142.951 230.656 143.036 230.597 143.105C230.539 143.174 230.462 143.225 230.375 143.251L89.9949 189.891C89.9349 189.916 89.8697 189.927 89.8049 189.921ZM54.4749 157.681L89.9149 188.851L229.145 142.611L189.875 113.611L54.4749 157.681Z" fill="#E6E7E8"/>
<path d="M160.355 90.0812C160.355 90.0812 117.525 106.921 77.0449 96.9312C36.5649 86.9412 12.4549 52.0112 12.4549 52.0112L34.1349 124.231C34.1349 124.231 49.4749 133.711 87.4249 133.231C135.835 132.661 168.485 108.541 168.485 108.541L157.485 89.6012" fill="white"/>
<path d="M84.8948 133.781C49.0548 133.781 34.0249 124.781 33.8949 124.661C33.792 124.595 33.7144 124.497 33.6749 124.381L11.9949 52.1512C11.9644 52.038 11.9748 51.9177 12.024 51.8114C12.0733 51.705 12.1583 51.6193 12.2643 51.5693C12.3703 51.5193 12.4906 51.5081 12.604 51.5377C12.7174 51.5673 12.8168 51.6358 12.8848 51.7312C13.1248 52.0712 37.3549 86.6212 77.1849 96.4412C111.235 104.841 147.375 94.0312 157.455 90.6012L157.035 89.8912C157.001 89.835 156.979 89.7726 156.97 89.7077C156.96 89.6427 156.964 89.5766 156.981 89.5131C156.998 89.4497 157.027 89.3903 157.067 89.3385C157.107 89.2866 157.158 89.2433 157.215 89.2112C157.271 89.1768 157.334 89.1538 157.399 89.1437C157.464 89.1336 157.531 89.1365 157.595 89.1523C157.659 89.1681 157.72 89.1965 157.773 89.2358C157.826 89.2751 157.871 89.3245 157.905 89.3812L158.415 90.2612L160.195 89.6212C160.255 89.5956 160.32 89.5826 160.385 89.5829C160.451 89.5832 160.515 89.5969 160.575 89.6231C160.635 89.6493 160.689 89.6875 160.734 89.7354C160.778 89.7832 160.813 89.8396 160.835 89.9012C160.859 89.9623 160.871 90.0275 160.87 90.0933C160.869 90.159 160.856 90.2239 160.83 90.2843C160.804 90.3447 160.766 90.3993 160.719 90.4451C160.672 90.4909 160.616 90.527 160.555 90.5512L158.925 91.1412L168.925 108.331C168.988 108.437 169.008 108.563 168.982 108.684C168.956 108.804 168.886 108.91 168.785 108.981C168.465 109.221 135.455 133.211 87.4349 133.771L84.8948 133.781ZM34.5548 123.901C36.2848 124.901 52.0748 133.171 87.4148 132.771C132.415 132.241 164.095 111.041 167.825 108.431L157.995 91.5012C148.085 94.8912 111.475 105.951 76.9949 97.4312C42.7948 89.0012 19.9949 62.5212 13.8149 54.5812L34.5548 123.901Z" fill="#231F20"/>
<path d="M149.635 92.7012L163.025 113.451L174.605 109.511L157.995 83.7812L149.635 92.7012Z" fill="white"/>
<path d="M162.995 113.951C162.911 113.95 162.829 113.929 162.756 113.889C162.683 113.849 162.621 113.791 162.575 113.721L149.185 92.9813C149.125 92.8858 149.098 92.7732 149.109 92.661C149.12 92.5489 149.168 92.4434 149.245 92.3612L157.605 83.4412C157.657 83.3862 157.721 83.3434 157.792 83.3157C157.863 83.2881 157.939 83.2763 158.015 83.2812C158.09 83.2899 158.162 83.315 158.226 83.3547C158.29 83.3945 158.344 83.448 158.385 83.5112L174.995 109.241C175.035 109.305 175.061 109.377 175.069 109.452C175.078 109.527 175.069 109.603 175.044 109.674C175.019 109.745 174.978 109.81 174.925 109.863C174.871 109.916 174.806 109.957 174.735 109.981L163.155 113.921C163.104 113.942 163.05 113.952 162.995 113.951ZM150.235 92.7612L163.235 112.851L173.835 109.241L157.925 84.5912L150.235 92.7612Z" fill="#231F20"/>
<path d="M212.415 99.8212C212.415 99.8212 212.635 115.081 203.755 126.171C194.875 137.261 167.405 142.781 167.405 142.781L176.085 109.151L212.415 99.8212Z" fill="#1F73D6"/>
<path d="M167.405 143.281C167.268 143.277 167.139 143.22 167.045 143.121C166.987 143.059 166.945 142.984 166.924 142.902C166.903 142.819 166.903 142.733 166.925 142.651L175.595 109.031C175.619 108.945 175.665 108.867 175.728 108.804C175.791 108.741 175.869 108.695 175.955 108.671L212.295 99.3412C212.368 99.3187 212.446 99.3142 212.522 99.328C212.597 99.3419 212.668 99.3736 212.729 99.4206C212.79 99.4677 212.838 99.5286 212.871 99.5983C212.903 99.668 212.918 99.7445 212.915 99.8212C212.915 99.9712 213.035 115.381 204.135 126.481C195.235 137.581 168.635 143.041 167.505 143.271L167.405 143.281ZM176.495 109.571L168.095 142.121C172.635 141.121 195.525 135.631 203.365 125.851C211.015 116.311 211.825 103.461 211.905 100.471L176.495 109.571Z" fill="#231F20"/>
<path d="M182.075 52.8112C182.075 52.8112 168.255 46.3212 154.495 49.8112C140.735 53.3012 124.395 76.0812 124.395 76.0812L158.605 82.0212L182.075 52.8112Z" fill="#1F73D6"/>
<path d="M158.605 82.5712H158.515L124.305 76.6212C124.222 76.6077 124.145 76.573 124.08 76.5204C124.015 76.4677 123.965 76.3991 123.935 76.3212C123.901 76.2437 123.888 76.1588 123.897 76.0746C123.905 75.9905 123.936 75.9101 123.985 75.8412C124.655 74.9112 140.595 52.9112 154.375 49.3712C168.155 45.8312 182.145 52.2912 182.285 52.3712C182.354 52.402 182.414 52.449 182.461 52.5082C182.508 52.5674 182.541 52.637 182.555 52.7112C182.573 52.7835 182.574 52.8588 182.558 52.9316C182.543 53.0044 182.511 53.0726 182.465 53.1312L158.995 82.3912C158.947 82.4483 158.888 82.4941 158.82 82.5252C158.753 82.5564 158.679 82.5721 158.605 82.5712ZM125.275 75.7812L158.405 81.5012L181.275 52.9812C178.515 51.8212 166.465 47.2712 154.625 50.3112C142.485 53.5012 128.065 72.0612 125.275 75.7812Z" fill="#231F20"/>
<path d="M151.055 81.3113C160.505 67.5613 177.055 52.0513 197.925 38.5913C229.535 18.1813 257.255 24.9913 266.645 28.3213C267.661 28.681 268.531 29.366 269.118 30.2699C269.706 31.1739 269.979 32.2464 269.895 33.3213C269.055 43.2513 263.895 71.3213 232.225 91.7213C211.365 105.191 190.415 113.891 173.995 116.831C173.995 116.831 167.795 113.201 159.805 100.831C151.815 88.4613 151.055 81.3113 151.055 81.3113Z" fill="#1F73D6"/>
<path d="M173.995 117.351C173.903 117.353 173.813 117.329 173.735 117.281C173.485 117.131 167.355 113.451 159.385 101.111C151.415 88.7712 150.585 81.6612 150.555 81.3712C150.545 81.2508 150.576 81.1306 150.645 81.0312C160.455 66.7412 177.585 51.1112 197.645 38.1712C229.085 17.8812 256.485 24.1712 266.815 27.8512C267.939 28.2462 268.9 29.0039 269.547 30.0051C270.193 31.0062 270.488 32.1939 270.385 33.3812C269.465 44.3012 263.935 71.8712 232.505 92.1612C212.445 105.161 191.145 114.291 174.075 117.341L173.995 117.351ZM151.575 81.4412C151.755 82.6012 153.085 89.5112 160.225 100.561C167.365 111.611 173.105 115.681 174.095 116.331C191.005 113.261 212.095 104.151 231.955 91.3312C263.025 71.3312 268.485 44.0812 269.395 33.3312C269.475 32.3637 269.234 31.3968 268.707 30.5811C268.181 29.7653 267.4 29.1466 266.485 28.8212C256.295 25.2112 229.255 18.9912 198.195 39.0312C178.315 51.8312 161.335 67.2912 151.575 81.4412Z" fill="#231F20"/>
<path d="M269.895 33.3412C268.658 45.6518 264.331 57.4503 257.315 67.6412L230.215 25.6412C242.389 23.4388 254.922 24.3574 266.645 28.3112C267.666 28.6723 268.54 29.3618 269.128 30.2719C269.716 31.1821 269.986 32.2614 269.895 33.3412Z" fill="white"/>
<path d="M257.325 68.1413C257.243 68.1404 257.162 68.1188 257.091 68.0786C257.019 68.0385 256.958 67.9809 256.915 67.9113L229.805 25.9113C229.768 25.8384 229.749 25.7579 229.749 25.6763C229.749 25.5946 229.768 25.5141 229.805 25.4413C229.838 25.3637 229.891 25.2957 229.957 25.2433C230.023 25.1909 230.102 25.1559 230.185 25.1413C242.443 22.9173 255.065 23.8464 266.865 27.8413C267.989 28.2363 268.95 28.994 269.596 29.9952C270.243 30.9963 270.538 32.1841 270.435 33.3713C269.217 45.7715 264.864 57.6579 257.785 67.9113C257.737 67.9885 257.669 68.0509 257.587 68.0915C257.506 68.1321 257.415 68.1493 257.325 68.1413ZM231.045 26.0113L257.325 66.7313C264.063 56.7636 268.211 45.2742 269.395 33.3013C269.475 32.3338 269.234 31.3669 268.707 30.5512C268.181 29.7354 267.4 29.1167 266.485 28.7913C255.087 24.9279 242.905 23.9723 231.045 26.0113Z" fill="#231F20"/>
<path d="M219.595 80.0712C230.249 80.0712 238.885 71.4348 238.885 60.7812C238.885 50.1276 230.249 41.4912 219.595 41.4912C208.941 41.4912 200.305 50.1276 200.305 60.7812C200.305 71.4348 208.941 80.0712 219.595 80.0712Z" fill="white"/>
<path d="M219.625 80.5612C214.867 80.5635 210.268 78.8507 206.67 75.7369C203.073 72.623 200.718 68.3168 200.038 63.6078C199.359 58.8987 200.399 54.1024 202.969 50.0981C205.538 46.0939 209.465 43.1501 214.029 41.8064C218.594 40.4627 223.489 40.8093 227.819 42.7824C232.148 44.7556 235.621 48.2233 237.601 52.5496C239.581 56.8759 239.936 61.7709 238.599 66.3373C237.263 70.9036 234.325 74.8352 230.325 77.4112C227.134 79.4659 223.42 80.5594 219.625 80.5612ZM219.555 41.9812C216.178 41.9855 212.864 42.9001 209.962 44.6286C207.061 46.3571 204.679 48.8356 203.067 51.8035C201.455 54.7714 200.673 58.1189 200.803 61.4937C200.933 64.8685 201.97 68.146 203.805 70.9812C205.482 73.5779 207.774 75.7209 210.478 77.2203C213.181 78.7197 216.213 79.5294 219.304 79.5775C222.395 79.6256 225.45 78.9107 228.199 77.4961C230.948 76.0815 233.305 74.0109 235.063 71.4677C236.82 68.9244 237.923 65.987 238.275 62.9156C238.626 59.8442 238.214 56.7336 237.076 53.8592C235.938 50.9849 234.109 48.4355 231.75 46.4369C229.392 44.4383 226.577 43.0522 223.555 42.4012C222.24 42.1232 220.899 41.9824 219.555 41.9812Z" fill="#231F20"/>
<path d="M219.595 72.6812C226.167 72.6812 231.495 67.3534 231.495 60.7812C231.495 54.209 226.167 48.8812 219.595 48.8812C213.023 48.8812 207.695 54.209 207.695 60.7812C207.695 67.3534 213.023 72.6812 219.595 72.6812Z" fill="#231F20"/>
<path d="M219.615 73.1812C216.632 73.194 213.745 72.1312 211.482 70.1877C209.22 68.2442 207.733 65.5503 207.296 62.5998C206.859 59.6493 207.499 56.6401 209.101 54.1237C210.702 51.6074 213.157 49.7526 216.015 48.8994C218.873 48.0463 221.943 48.2519 224.662 49.4786C227.381 50.7054 229.566 52.871 230.818 55.5784C232.069 58.2859 232.303 61.3537 231.476 64.2195C230.649 67.0852 228.816 69.5569 226.315 71.1812C224.319 72.4763 221.994 73.1705 219.615 73.1812ZM219.615 49.3812C217.425 49.3762 215.281 50.0086 213.445 51.2012C211.135 52.6892 209.44 54.9598 208.669 57.5967C207.898 60.2336 208.103 63.0601 209.248 65.5577C210.392 68.0554 212.398 70.0568 214.899 71.195C217.399 72.3332 220.226 72.5319 222.861 71.7546C225.496 70.9774 227.763 69.2762 229.245 66.9632C230.727 64.6502 231.326 61.8803 230.932 59.1615C230.537 56.4426 229.176 53.9572 227.097 52.1608C225.019 50.3644 222.362 49.3776 219.615 49.3812Z" fill="#231F20"/>
<path d="M227.575 56.1212C227.486 56.1208 227.4 56.0963 227.324 56.0505C227.248 56.0048 227.186 55.9394 227.145 55.8612C226.985 55.5912 223.295 49.1812 215.605 52.7012C215.496 52.7448 215.375 52.7486 215.264 52.7121C215.152 52.6755 215.057 52.6009 214.995 52.5012C214.966 52.4423 214.95 52.3782 214.947 52.3129C214.943 52.2475 214.953 52.1821 214.976 52.1206C214.998 52.059 215.032 52.0026 215.077 51.9547C215.121 51.9067 215.175 51.8681 215.235 51.8412C223.785 47.9412 228.025 55.3612 228.065 55.4312C228.126 55.5484 228.14 55.6848 228.102 55.8117C228.065 55.9385 227.98 56.0459 227.865 56.1112C227.771 56.1432 227.67 56.1466 227.575 56.1212Z" fill="white"/>
<path d="M228.885 60.2613C228.821 60.2562 228.758 60.2385 228.7 60.2091C228.643 60.1796 228.591 60.1391 228.55 60.0899C228.508 60.0406 228.476 59.9836 228.456 59.922C228.437 59.8605 228.429 59.7956 228.435 59.7313C228.471 59.1028 228.354 58.475 228.095 57.9013C228.04 57.7818 228.035 57.6455 228.08 57.522C228.124 57.3985 228.216 57.2976 228.335 57.2412C228.395 57.2134 228.46 57.198 228.527 57.196C228.593 57.1941 228.659 57.2056 228.721 57.2299C228.782 57.2542 228.838 57.2908 228.886 57.3374C228.933 57.3841 228.97 57.4398 228.995 57.5012C229.324 58.2353 229.472 59.038 229.425 59.8412C229.407 59.9678 229.341 60.0826 229.24 60.1611C229.139 60.2395 229.012 60.2755 228.885 60.2613Z" fill="white"/>
<path d="M157.115 80.6812C157.002 80.6798 156.893 80.6411 156.805 80.5712C156.702 80.4887 156.636 80.3688 156.621 80.2377C156.606 80.1065 156.643 79.9748 156.725 79.8712C163.841 71.2955 171.468 63.1574 179.565 55.5012C179.662 55.4209 179.786 55.3803 179.912 55.3877C180.038 55.3951 180.157 55.4498 180.244 55.5409C180.331 55.632 180.381 55.7528 180.383 55.8789C180.385 56.0051 180.339 56.1274 180.255 56.2212C172.189 63.8488 164.592 71.9569 157.505 80.5012C157.458 80.5588 157.398 80.605 157.331 80.6362C157.263 80.6674 157.189 80.6828 157.115 80.6812Z" fill="white"/>
<path d="M179.585 94.4212C165.655 103.421 147.695 112.231 146.135 109.811C144.575 107.391 159.995 94.6612 173.935 85.6612C187.875 76.6612 196.595 77.2412 196.595 77.2412C196.595 77.2412 193.525 85.4312 179.585 94.4212Z" fill="#1F73D6"/>
<path d="M147.275 110.671C146.986 110.711 146.692 110.678 146.42 110.575C146.147 110.472 145.905 110.302 145.715 110.081C145.375 109.561 144.345 107.971 153.895 99.8212C160.178 94.5615 166.781 89.6956 173.665 85.2512C187.575 76.2512 196.265 76.7212 196.665 76.7412C196.743 76.7476 196.819 76.7717 196.886 76.8115C196.954 76.8513 197.011 76.9059 197.055 76.9712C197.095 77.0381 197.121 77.113 197.129 77.1907C197.138 77.2684 197.13 77.347 197.105 77.4212C196.975 77.7612 193.815 85.8612 179.895 94.8412C170.625 100.801 152.875 110.671 147.275 110.671ZM195.805 77.7512C193.425 77.8512 185.525 78.7512 174.205 86.0812C167.358 90.503 160.792 95.3456 154.545 100.581C147.545 106.581 146.245 109.061 146.545 109.581C147.655 111.311 163.745 104.081 179.305 94.0412C190.635 86.7012 194.735 79.8812 195.805 77.7512Z" fill="#231F20"/>
<path d="M199.515 160.591L146.835 176.851L170.655 195.441L222.465 178.011L199.515 160.591Z" fill="white"/>
<path d="M170.655 195.941C170.542 195.94 170.433 195.901 170.345 195.831L146.535 177.251C146.462 177.194 146.405 177.119 146.372 177.032C146.338 176.946 146.329 176.852 146.345 176.761C146.362 176.671 146.404 176.588 146.466 176.521C146.528 176.454 146.607 176.406 146.695 176.381L199.365 160.111C199.441 160.087 199.521 160.082 199.6 160.095C199.678 160.109 199.752 160.142 199.815 160.191L222.765 177.611C222.839 177.665 222.896 177.738 222.93 177.823C222.964 177.908 222.972 178.001 222.955 178.091C222.945 178.183 222.909 178.27 222.85 178.341C222.791 178.412 222.713 178.464 222.625 178.491L170.815 195.911C170.764 195.931 170.71 195.941 170.655 195.941ZM147.905 177.051L170.755 194.881L221.415 177.881L199.415 161.181L147.905 177.051Z" fill="#E6E7E8"/>
<path d="M99.7449 115.691C84.3349 115.691 66.5749 113.161 50.4649 104.611C50.4065 104.582 50.3546 104.541 50.3123 104.491C50.2699 104.441 50.2381 104.383 50.2185 104.321C50.1989 104.258 50.192 104.192 50.1983 104.127C50.2045 104.062 50.2238 103.999 50.2549 103.941C50.2854 103.883 50.3273 103.83 50.3781 103.788C50.429 103.746 50.4877 103.714 50.551 103.694C50.6142 103.675 50.6807 103.668 50.7466 103.674C50.8125 103.681 50.8765 103.7 50.9349 103.731C90.0649 124.471 139.045 109.451 139.535 109.301C139.599 109.275 139.668 109.262 139.737 109.263C139.806 109.265 139.875 109.281 139.937 109.31C140 109.339 140.056 109.381 140.102 109.433C140.148 109.486 140.182 109.547 140.203 109.613C140.224 109.679 140.231 109.748 140.223 109.817C140.216 109.886 140.194 109.953 140.159 110.013C140.125 110.073 140.078 110.125 140.022 110.166C139.966 110.207 139.903 110.236 139.835 110.251C126.779 113.868 113.293 115.698 99.7449 115.691Z" fill="#E6E7E8"/>
<path d="M91.0749 125.201C58.8849 125.201 37.8449 110.301 37.6049 110.121C37.5508 110.083 37.5047 110.035 37.4694 109.979C37.4341 109.924 37.4101 109.861 37.399 109.796C37.3878 109.731 37.3897 109.664 37.4044 109.6C37.4191 109.536 37.4465 109.475 37.4848 109.421C37.5645 109.316 37.682 109.245 37.8126 109.225C37.9432 109.204 38.0767 109.235 38.1849 109.311C38.4749 109.521 67.4648 130.041 109.475 122.571C109.541 122.56 109.608 122.562 109.673 122.577C109.738 122.592 109.799 122.619 109.853 122.658C109.908 122.696 109.954 122.745 109.989 122.801C110.025 122.858 110.049 122.921 110.06 122.986C110.071 123.052 110.069 123.119 110.054 123.184C110.039 123.249 110.012 123.31 109.974 123.365C109.935 123.419 109.886 123.465 109.83 123.501C109.773 123.536 109.711 123.56 109.645 123.571C103.515 124.659 97.3007 125.205 91.0749 125.201Z" fill="#E6E7E8"/>
<path d="M59.1549 100.321C59.0891 100.336 59.0207 100.336 58.9549 100.321C27.4649 86.0612 19.7749 68.4212 19.6949 68.2512C19.6663 68.1903 19.6502 68.1242 19.6477 68.057C19.6452 67.9897 19.6563 67.9227 19.6803 67.8598C19.7043 67.797 19.7408 67.7396 19.7875 67.6912C19.8342 67.6428 19.8902 67.6043 19.9522 67.578C20.0142 67.5517 20.0808 67.5382 20.1481 67.5383C20.2154 67.5384 20.2819 67.5521 20.3438 67.5785C20.4057 67.605 20.4616 67.6436 20.5082 67.6922C20.5548 67.7408 20.5911 67.7982 20.6149 67.8612C20.6149 67.8612 22.5049 72.2512 28.1949 78.2912C33.4449 83.8612 43.1149 92.0512 59.3649 99.4112C59.4854 99.4657 59.5794 99.5658 59.6262 99.6895C59.6731 99.8132 59.669 99.9505 59.6149 100.071C59.5672 100.15 59.4995 100.214 59.4187 100.258C59.3378 100.302 59.2468 100.324 59.1549 100.321Z" fill="#E6E7E8"/>
<path d="M115.425 106.021C115.292 106.021 115.165 105.969 115.071 105.875C114.977 105.781 114.925 105.654 114.925 105.521C114.927 105.389 114.981 105.264 115.074 105.17C115.167 105.077 115.293 105.024 115.425 105.021C115.605 105.021 132.945 105.021 140.865 101.151C140.924 101.117 140.991 101.096 141.059 101.089C141.127 101.081 141.196 101.088 141.262 101.109C141.327 101.129 141.388 101.163 141.44 101.208C141.492 101.253 141.534 101.308 141.563 101.37C141.593 101.432 141.609 101.5 141.612 101.568C141.614 101.637 141.602 101.705 141.577 101.769C141.552 101.833 141.514 101.891 141.465 101.94C141.417 101.988 141.359 102.026 141.295 102.051C133.175 105.981 116.155 106.021 115.425 106.021Z" fill="#E6E7E8"/>
<path d="M93.4648 88.1113L91.0048 85.4813L87.4548 86.0213L89.1848 82.8613L87.5848 79.6413L91.1148 80.3313L93.6748 77.8013L94.1248 81.3713L97.3148 83.0313L94.0548 84.5613L93.4648 88.1113Z" fill="#1F73D6"/>
<path d="M126.185 91.2911L124.665 89.6711L122.465 90.0011L123.545 88.0511L122.545 86.0611L124.735 86.4811L126.315 84.9211L126.595 87.1311L128.565 88.1511L126.555 89.1011L126.185 91.2911Z" fill="#1F73D6"/>
<path d="M111.355 153.041L106.115 149.971L100.615 152.551L101.925 146.621L97.7749 142.181L103.815 141.591L106.755 136.271L109.185 141.831L115.145 142.981L110.605 147.021L111.355 153.041Z" fill="#1F73D6"/>
<path d="M74.8249 115.801L71.5649 112.321L66.8448 113.031L69.1549 108.851L67.0149 104.591L71.7049 105.491L75.0949 102.141L75.6849 106.881L79.9248 109.071L75.6049 111.101L74.8249 115.801Z" fill="#1F73D6"/>
<path d="M12.4549 52.5012C12.3223 52.5158 12.1893 52.4771 12.0852 52.3937C11.9811 52.3102 11.9145 52.1889 11.8999 52.0562C11.8853 51.9236 11.924 51.7907 12.0074 51.6866C12.0909 51.5825 12.2123 51.5158 12.3449 51.5012L164.835 18.1112C164.901 18.0975 164.968 18.0967 165.034 18.1091C165.1 18.1215 165.163 18.1468 165.219 18.1834C165.275 18.2201 165.324 18.2675 165.362 18.3229C165.4 18.3783 165.426 18.4406 165.44 18.5062C165.454 18.5719 165.454 18.6396 165.442 18.7056C165.43 18.7715 165.404 18.8344 165.368 18.8906C165.331 18.9467 165.284 18.9951 165.228 19.033C165.173 19.0709 165.111 19.0975 165.045 19.1112L12.5649 52.5012H12.4549Z" fill="#231F20"/>
<path d="M19.5349 47.0312C20.656 47.0312 21.5649 46.1223 21.5649 45.0012C21.5649 43.8801 20.656 42.9712 19.5349 42.9712C18.4137 42.9712 17.5049 43.8801 17.5049 45.0012C17.5049 46.1223 18.4137 47.0312 19.5349 47.0312Z" fill="#1F73D6"/>
<path d="M26.7949 45.1812C27.916 45.1812 28.8249 44.2724 28.8249 43.1512C28.8249 42.0301 27.916 41.1212 26.7949 41.1212C25.6738 41.1212 24.7649 42.0301 24.7649 43.1512C24.7649 44.2724 25.6738 45.1812 26.7949 45.1812Z" fill="#E6E7E8"/>
<path d="M33.7049 43.5912C34.826 43.5912 35.7349 42.6824 35.7349 41.5612C35.7349 40.4401 34.826 39.5312 33.7049 39.5312C32.5837 39.5312 31.6749 40.4401 31.6749 41.5612C31.6749 42.6824 32.5837 43.5912 33.7049 43.5912Z" fill="#E6E7E8"/>
<path d="M140.718 37.712L50.2215 58.9711C47.3505 59.6455 45.5698 62.5197 46.2442 65.3907L46.2465 65.4005C46.921 68.2715 49.7952 70.0522 52.6662 69.3778L143.163 48.1187C146.034 47.4442 147.814 44.57 147.14 41.699L147.138 41.6892C146.463 38.8182 143.589 37.0375 140.718 37.712Z" fill="#E6E7E8"/>
</svg>
