<svg width="256" height="294" viewBox="0 0 256 294" fill="none" xmlns="http://www.w3.org/2000/svg">
<path d="M124.962 294C184.021 294 231.898 289.764 231.898 284.54C231.898 279.315 184.021 275.08 124.962 275.08C65.9025 275.08 18.0256 279.315 18.0256 284.54C18.0256 289.764 65.9025 294 124.962 294Z" fill="#1F73D6"/>
<path d="M190.778 240.832C190.012 240.835 189.255 240.66 188.568 240.321C187.88 239.982 187.28 239.489 186.815 238.88C176.106 224.833 148.453 189.591 145.509 186.483C144.564 185.646 143.973 184.481 143.855 183.224C143.737 181.967 144.102 180.712 144.875 179.714C145.648 178.716 146.771 178.049 148.017 177.85C149.263 177.65 150.538 177.933 151.584 178.639C154.528 180.653 194.331 232.329 194.716 232.851C195.275 233.587 195.618 234.465 195.706 235.385C195.794 236.306 195.624 237.232 195.215 238.061C194.806 238.89 194.174 239.589 193.39 240.078C192.606 240.568 191.702 240.829 190.778 240.832ZM145.571 186.533C145.695 186.647 145.828 186.751 145.969 186.844C145.831 186.747 145.698 186.643 145.571 186.533Z" fill="#231F20"/>
<path d="M199.064 107.596C192.297 107.59 185.548 106.881 178.927 105.483C178.29 105.336 177.689 105.065 177.158 104.685C176.626 104.306 176.174 103.825 175.828 103.271C175.482 102.717 175.248 102.1 175.141 101.456C175.033 100.812 175.053 100.152 175.2 99.5156C175.346 98.8789 175.617 98.2774 175.996 97.7454C176.375 97.2135 176.856 96.7614 177.409 96.4151C177.963 96.0688 178.579 95.835 179.223 95.7271C179.867 95.6192 180.526 95.6393 181.163 95.7862C187.24 97.0405 193.43 97.6653 199.635 97.6509C208.331 97.6509 219.984 96.0473 226.518 88.9491C233.053 81.851 233.724 69.7307 228.394 53.0854C228.195 52.4635 228.121 51.8084 228.175 51.1575C228.229 50.5067 228.41 49.8728 228.709 49.2922C229.008 48.7116 229.418 48.1955 229.916 47.7735C230.414 47.3515 230.99 47.0318 231.612 46.8326C232.233 46.6334 232.888 46.5587 233.539 46.6127C234.189 46.6668 234.822 46.8484 235.403 47.1474C235.983 47.4464 236.499 47.8568 236.92 48.3552C237.342 48.8536 237.662 49.4303 237.861 50.0522C244.358 70.3522 243.004 85.7171 233.823 95.6992C225.015 105.259 210.853 107.596 199.064 107.596Z" fill="#231F20"/>
<path d="M34.0883 176.041C32.7986 176.039 31.5602 175.536 30.6348 174.637C25.5166 169.664 0 144.28 0 129.661C0 113.724 36.5232 103.742 47.7286 101.069C48.3667 100.907 49.0306 100.874 49.6817 100.971C50.3328 101.068 50.9582 101.293 51.5215 101.634C52.0848 101.975 52.5748 102.425 52.963 102.957C53.3513 103.488 53.63 104.092 53.7831 104.733C53.9361 105.374 53.9605 106.038 53.8547 106.689C53.7488 107.339 53.515 107.961 53.1667 108.52C52.8183 109.079 52.3625 109.563 51.8256 109.945C51.2888 110.326 50.6816 110.596 50.0393 110.741C29.0571 115.713 9.93829 124.788 9.93829 129.661C9.93829 137.343 26.088 156.413 37.5295 167.489C38.2423 168.176 38.7336 169.061 38.9405 170.03C39.1473 170.998 39.0603 172.007 38.6906 172.926C38.3208 173.845 37.6852 174.632 36.8652 175.187C36.0453 175.742 35.0783 176.04 34.0883 176.041Z" fill="#231F20"/>
<path d="M84.2146 247.856C83.1292 247.855 82.0741 247.498 81.2105 246.84C80.3468 246.183 79.7221 245.26 79.4318 244.214C71.7172 216.455 84.5003 188.833 88.7116 179.758C89.0471 179.025 89.4197 178.229 89.5937 177.819C89.8567 176.669 90.52 175.649 91.4651 174.943C92.4102 174.237 93.5753 173.891 94.7523 173.966C95.9293 174.04 97.0414 174.531 97.8897 175.351C98.738 176.171 99.2673 177.266 99.3829 178.441C99.532 180.032 99.0847 181.014 97.7306 183.935C93.9044 192.189 82.2642 217.313 89.0346 241.553C89.2397 242.292 89.2711 243.069 89.1263 243.822C88.9816 244.576 88.6646 245.285 88.2003 245.896C87.7359 246.506 87.1367 247 86.4496 247.341C85.7625 247.681 85.006 247.857 84.2394 247.856H84.2146Z" fill="#231F20"/>
<path d="M119.197 202.781C164.102 202.781 200.505 166.354 200.505 121.419C200.505 76.4844 164.102 40.0576 119.197 40.0576C74.2924 40.0576 37.8897 76.4844 37.8897 121.419C37.8897 166.354 74.2924 202.781 119.197 202.781Z" fill="#1F73D6"/>
<path d="M119.197 40.0698C135.279 40.0698 151 44.8419 164.371 53.7825C177.742 62.7232 188.163 75.4309 194.317 90.2985C200.471 105.166 202.08 121.526 198.942 137.309C195.803 153.092 188.058 167.589 176.686 178.967C165.314 190.345 150.825 198.093 135.052 201.231C119.279 204.369 102.93 202.756 88.0737 196.596C73.2169 190.436 60.5192 180.006 51.5865 166.624C42.6538 153.243 37.8873 137.511 37.8897 121.419C37.8897 110.735 39.9929 100.156 44.0791 90.285C48.1654 80.4145 54.1547 71.4461 61.7049 63.892C69.2552 56.3379 78.2186 50.346 88.0832 46.2585C97.9478 42.1711 108.52 40.0681 119.197 40.0698ZM119.197 38.8267C102.863 38.8267 86.8958 43.6735 73.3144 52.7543C59.733 61.8352 49.1476 74.7421 42.8968 89.8429C36.6459 104.944 35.0104 121.56 38.1971 137.591C41.3837 153.622 49.2494 168.348 60.7994 179.905C72.3494 191.463 87.0651 199.334 103.085 202.523C119.106 205.711 135.711 204.075 150.802 197.82C165.893 191.565 178.791 180.972 187.866 167.382C196.941 153.792 201.785 137.814 201.785 121.469C201.758 99.5587 193.049 78.5537 177.566 63.061C162.084 47.5683 141.093 38.853 119.197 38.8267Z" fill="#231F20"/>
<path d="M92.4385 115.974C96.0062 115.974 98.8984 109.106 98.8984 100.634C98.8984 92.1624 96.0062 85.2944 92.4385 85.2944C88.8708 85.2944 85.9786 92.1624 85.9786 100.634C85.9786 109.106 88.8708 115.974 92.4385 115.974Z" fill="#231F20"/>
<path d="M145.969 115.974C149.536 115.974 152.429 109.106 152.429 100.634C152.429 92.1624 149.536 85.2944 145.969 85.2944C142.401 85.2944 139.509 92.1624 139.509 100.634C139.509 109.106 142.401 115.974 145.969 115.974Z" fill="#231F20"/>
<path d="M119.197 174.674C93.1963 174.674 71.9905 158.427 71.9905 138.475C71.9905 137.98 72.1868 137.506 72.5363 137.156C72.8857 136.807 73.3597 136.61 73.8539 136.61C74.3481 136.61 74.8221 136.807 75.1715 137.156C75.521 137.506 75.7173 137.98 75.7173 138.475C75.7173 156.376 95.2088 170.945 119.197 170.945C143.186 170.945 162.677 156.376 162.677 138.475C162.677 137.98 162.874 137.506 163.223 137.156C163.573 136.807 164.047 136.61 164.541 136.61C165.035 136.61 165.509 136.807 165.858 137.156C166.208 137.506 166.404 137.98 166.404 138.475C166.355 158.427 145.198 174.674 119.197 174.674Z" fill="#231F20"/>
<path d="M217.984 60.1709C217.984 60.1709 196.579 37.6707 195.151 32.0394C193.722 26.4081 199.673 25.6249 203.586 28.7576C207.499 31.8902 214.58 40.4428 214.58 40.4428C214.58 40.4428 206.294 7.62471 208.257 3.70891C210.22 -0.206884 240.817 -2.61852 244.556 11.5405C248.014 25.6299 250.095 40.0224 250.768 54.5148L217.984 60.1709Z" fill="white"/>
<path d="M217.984 60.8051C217.897 60.8081 217.811 60.7919 217.732 60.7575C217.652 60.7231 217.581 60.6714 217.524 60.6062C216.642 59.6863 195.983 37.9195 194.53 32.1887C193.735 29.0312 195.138 27.5892 196.045 27.005C198.12 25.6873 201.462 26.2342 203.996 28.2481C207.315 31.2585 210.428 34.4896 213.313 37.9195C211.3 29.6901 205.946 6.84172 207.698 3.37344C208.94 0.887223 218.27 -0.629371 226.854 0.253237C232.767 0.874792 243.004 3.12482 245.19 11.3293C250.619 31.8655 251.401 54.2166 251.401 54.4404C251.407 54.5944 251.358 54.7455 251.262 54.8663C251.167 54.9871 251.031 55.0697 250.88 55.0992L218.058 60.7554L217.984 60.8051ZM198.704 27.5892C198.016 27.5705 197.337 27.7426 196.741 28.0865C195.66 28.7826 195.325 30.0879 195.772 31.8158C196.853 36.0921 210.779 51.5937 218.208 59.4128L250.134 53.9183C249.973 50.3381 248.892 30.237 243.923 11.6526C241.96 4.1939 232.283 2.1179 226.705 1.53364C218.009 0.626171 209.623 2.34166 208.816 3.94527C207.449 6.66769 211.884 27.1417 215.189 40.2316C215.224 40.3738 215.21 40.5239 215.149 40.6571C215.089 40.7904 214.984 40.899 214.853 40.9651C214.723 41.0257 214.576 41.0427 214.435 41.0136C214.294 40.9845 214.167 40.9108 214.071 40.8035C213.996 40.7165 206.952 32.3255 203.163 29.2426C201.897 28.2189 200.331 27.6382 198.704 27.5892Z" fill="#231F20"/>
<path d="M249.321 51.7249L216.646 57.3551C213.948 57.8199 212.137 60.3852 212.602 63.0848L212.714 63.7341C213.178 66.4337 215.742 68.2454 218.439 67.7805L251.115 62.1503C253.813 61.6855 255.623 59.1202 255.159 56.4206L255.047 55.7713C254.583 53.0717 252.019 51.2601 249.321 51.7249Z" fill="white"/>
<path d="M217.586 68.5373C216.262 68.5278 214.985 68.0495 213.979 67.187C212.974 66.3246 212.307 65.1338 212.095 63.8259L211.984 63.1671C211.859 62.443 211.878 61.7015 212.039 60.9848C212.201 60.2681 212.502 59.5902 212.925 58.99C213.349 58.3897 213.886 57.8788 214.507 57.4863C215.127 57.0939 215.819 56.8277 216.543 56.7029L249.215 51.1338C249.939 51.0071 250.68 51.0247 251.397 51.1857C252.114 51.3467 252.792 51.6477 253.392 52.0717C253.993 52.4956 254.503 53.034 254.895 53.6559C255.287 54.2779 255.552 54.9712 255.675 55.696L255.799 56.3548C255.924 57.0797 255.905 57.8221 255.742 58.5395C255.58 59.2569 255.278 59.9353 254.853 60.5357C254.428 61.1361 253.89 61.6469 253.268 62.0387C252.645 62.4305 251.952 62.6956 251.227 62.819L218.543 68.4503C218.227 68.5034 217.907 68.5325 217.586 68.5373ZM250.172 52.3769C249.928 52.3584 249.683 52.3584 249.439 52.3769L216.754 57.9709C216.196 58.0641 215.662 58.267 215.182 58.5679C214.703 58.8688 214.288 59.2618 213.961 59.7241C213.634 60.1863 213.402 60.7088 213.278 61.2614C213.154 61.8139 213.14 62.3855 213.238 62.9433L213.338 63.5649C213.432 64.1227 213.636 64.6563 213.937 65.1352C214.239 65.6141 214.631 66.0289 215.093 66.3557C215.554 66.6825 216.076 66.9149 216.627 67.0397C217.179 67.1645 217.75 67.1792 218.307 67.0829L251.004 61.4516C252.127 61.254 253.126 60.6207 253.785 59.6894C254.443 58.7582 254.707 57.6044 254.52 56.4791L254.408 55.8203C254.228 54.8258 253.706 53.9258 252.932 53.2764C252.158 52.627 251.181 52.2692 250.172 52.265V52.3769Z" fill="#231F20"/>
<path d="M234.892 44.2842C234.798 44.2829 234.707 44.261 234.623 44.2202C234.539 44.1794 234.465 44.1206 234.407 44.048C231.165 40.3186 227.637 38.1929 223.947 37.9443C220.709 37.8228 217.536 38.8781 215.015 40.9153C214.954 40.9829 214.88 41.0368 214.797 41.0738C214.714 41.1107 214.625 41.1298 214.534 41.1297C214.443 41.1296 214.354 41.1105 214.271 41.0734C214.188 41.0364 214.114 40.9823 214.053 40.9147C213.993 40.8471 213.947 40.7675 213.919 40.6811C213.892 40.5946 213.882 40.5033 213.892 40.4131C213.902 40.3229 213.931 40.2357 213.977 40.1573C214.022 40.0789 214.084 40.0111 214.158 39.9581C216.919 37.675 220.431 36.5008 224.009 36.6639C228.071 36.9374 231.898 39.1501 235.376 43.2151C235.432 43.279 235.474 43.3535 235.501 43.4341C235.528 43.5148 235.538 43.6 235.531 43.6846C235.524 43.7693 235.5 43.8516 235.461 43.9269C235.421 44.0021 235.367 44.0686 235.301 44.1226C235.247 44.1753 235.183 44.2167 235.113 44.2445C235.042 44.2722 234.967 44.2857 234.892 44.2842Z" fill="#231F20"/>
<path d="M44.8217 157.606C44.8217 157.606 56.5116 172.163 59.6546 178.739C62.7976 185.315 54.8097 201.861 49.3809 205.864C43.9521 209.867 21.1313 210.998 20.8083 205.864C20.4853 200.73 30.4733 200.17 30.4733 200.17C30.4733 200.17 21.3798 196.727 24.5227 185.589L18.2989 170.186L44.8217 157.606Z" fill="white"/>
<path d="M32.0634 209.941C28.1005 209.941 24.4979 209.493 22.3984 208.499C21.0071 207.84 20.2617 206.97 20.212 205.901C20.1126 204.21 20.9325 201.898 25.3799 200.481C26.3848 200.17 27.4101 199.929 28.4484 199.76C25.8644 198.02 21.6655 193.793 23.8767 185.626L17.6653 170.435C17.5981 170.285 17.593 170.114 17.6512 169.96C17.7095 169.807 17.8262 169.682 17.9759 169.614L44.5235 157.022C44.6531 156.961 44.7989 156.946 44.9383 156.977C45.0777 157.009 45.2027 157.086 45.2938 157.196C45.7658 157.792 57.0706 171.902 60.2012 178.453C63.3317 185.004 55.5426 202.072 49.7287 206.373C46.7472 208.598 38.8836 209.941 32.0634 209.941ZM19.1064 170.472L25.1439 185.39C25.1932 185.526 25.1932 185.676 25.1439 185.812C22.1997 196.267 30.3615 199.486 30.7093 199.623C30.8452 199.677 30.9592 199.775 31.0335 199.901C31.1077 200.027 31.1379 200.174 31.1193 200.319C31.0949 200.464 31.023 200.596 30.915 200.695C30.807 200.794 30.669 200.854 30.523 200.866C30.4236 200.866 21.2183 201.438 21.4667 205.839C21.4667 206.398 21.9885 206.908 22.9202 207.355C28.2496 209.841 44.5608 208.598 49.0082 205.354C54.3997 201.376 62.0149 185.166 59.0831 179.025C56.288 173.195 46.5236 160.788 44.6353 158.414L19.1064 170.472Z" fill="#231F20"/>
<path d="M42.4832 151.411L14.1103 168.579C11.7677 169.996 11.017 173.046 12.4334 175.39L12.7741 175.953C14.1906 178.298 17.2379 179.049 19.5805 177.631L47.9534 160.464C50.296 159.046 51.0467 155.997 49.6303 153.653L49.2896 153.089C47.8731 150.745 44.8258 149.994 42.4832 151.411Z" fill="white"/>
<path d="M17.0566 179.012C16.6048 179.007 16.1549 178.953 15.7149 178.851C14.9996 178.675 14.3262 178.359 13.7335 177.922C13.1407 177.485 12.6404 176.934 12.2614 176.302L11.9135 175.73C11.1535 174.458 10.9268 172.936 11.2828 171.497C11.6389 170.058 12.5487 168.819 13.8142 168.048L42.2005 150.881C42.8286 150.5 43.5253 150.247 44.2511 150.136C44.9768 150.025 45.7173 150.059 46.4302 150.234C47.1431 150.41 47.8145 150.724 48.4061 151.159C48.9976 151.594 49.4977 152.142 49.8778 152.77L50.2256 153.342C50.6069 153.971 50.8602 154.669 50.971 155.396C51.0818 156.123 51.0479 156.865 50.8713 157.578C50.6946 158.292 50.3788 158.964 49.9418 159.556C49.5048 160.147 48.9553 160.646 48.3249 161.024L19.9387 178.204C19.07 178.732 18.0731 179.012 17.0566 179.012ZM45.0826 151.353C44.2987 151.355 43.5301 151.569 42.8589 151.974L14.4726 169.154C13.4968 169.747 12.7957 170.703 12.5232 171.812C12.2507 172.921 12.4291 174.094 13.0192 175.071L13.3546 175.643C13.9493 176.621 14.9067 177.322 16.0173 177.595C17.1279 177.868 18.3011 177.689 19.2803 177.098L47.6665 159.93C48.6432 159.335 49.3446 158.377 49.617 157.266C49.8894 156.155 49.7107 154.981 49.12 154.001L48.7846 153.441C48.3992 152.798 47.8525 152.267 47.1988 151.901C46.545 151.535 45.8069 151.346 45.0577 151.353H45.0826Z" fill="#231F20"/>
<path d="M99.3084 238.843C99.3084 238.843 64.251 231.994 63.9653 235.425C63.6796 238.856 65.1082 266.838 65.1082 266.838C65.1082 266.838 31.5665 284.863 36.722 287.15C41.8775 289.438 99.3084 278.822 99.3084 278.822V238.843Z" fill="white"/>
<path d="M39.6289 288.133C38.56 288.199 37.4879 288.077 36.4611 287.772C36.2036 287.679 35.9799 287.51 35.8184 287.289C35.6569 287.068 35.5649 286.803 35.5542 286.529C35.5542 285.746 35.4424 283.657 50.2629 274.645C56.5364 270.829 62.8845 267.348 64.4374 266.503C64.2635 262.91 63.0585 238.644 63.3193 235.425C63.3404 235.254 63.3966 235.09 63.4842 234.943C63.5719 234.795 63.6892 234.667 63.8287 234.567C67.071 232.081 94.0535 237.227 99.4326 238.296C99.5762 238.325 99.7054 238.403 99.7983 238.516C99.8911 238.629 99.9419 238.771 99.9419 238.918V278.896C99.9443 279.047 99.8931 279.193 99.7975 279.309C99.7019 279.425 99.5682 279.504 99.4202 279.53C94.1529 280.463 52.2506 288.133 39.6289 288.133ZM67.481 235.114C65.8784 235.114 64.8473 235.263 64.574 235.599C64.3256 238.868 65.7294 266.565 65.7418 266.851C65.7504 266.972 65.7232 267.093 65.6636 267.199C65.6039 267.305 65.5145 267.392 65.4064 267.447C51.294 275.043 36.7468 284.242 36.8338 286.492C36.8338 286.492 36.8338 286.566 36.9829 286.616C41.0079 288.406 82.3636 281.345 98.6624 278.337V239.428C86.2768 237.004 73.2079 235.114 67.481 235.114Z" fill="#231F20"/>
<path d="M197.598 211.905C197.598 211.905 174.976 217.201 169.771 237.6L199.586 278.722L240.022 222.248L210.207 232.466L197.598 211.905Z" fill="white"/>
<path d="M199.561 279.356C199.459 279.359 199.358 279.336 199.267 279.291C199.176 279.245 199.098 279.178 199.039 279.095L169.224 237.973C169.168 237.897 169.13 237.81 169.113 237.717C169.096 237.625 169.1 237.529 169.125 237.439C174.355 216.902 197.2 211.333 197.424 211.271C197.557 211.241 197.695 211.254 197.82 211.308C197.945 211.361 198.05 211.453 198.12 211.569L210.381 231.695L239.761 221.639C239.89 221.596 240.028 221.594 240.158 221.634C240.287 221.674 240.4 221.754 240.482 221.862C240.563 221.972 240.608 222.105 240.608 222.242C240.608 222.378 240.563 222.511 240.482 222.621L200.045 279.095C199.984 279.175 199.905 279.24 199.814 279.285C199.724 279.331 199.625 279.355 199.524 279.356H199.561ZM170.466 237.476L199.548 277.628L238.308 223.503L210.331 233.075C210.194 233.117 210.047 233.113 209.913 233.064C209.778 233.014 209.664 232.922 209.586 232.802L197.3 212.639C194.144 213.521 175.237 219.488 170.466 237.476Z" fill="#231F20"/>
<path d="M201.213 280.251C190.169 271.549 202.294 257.813 213.884 242.411C222.208 231.335 237.637 217.81 245.103 223.665C253.687 230.39 214.319 290.532 201.213 280.251Z" fill="#1F73D6"/>
<path d="M204.741 282.079C203.319 282.098 201.933 281.628 200.816 280.748C190.219 272.432 200.033 259.541 210.431 245.941C211.4 244.698 212.394 243.381 213.363 242.075C220.158 233.038 231.202 222.832 239.451 221.75C240.515 221.564 241.606 221.597 242.657 221.847C243.708 222.097 244.696 222.559 245.563 223.205C246.805 224.199 247.265 226.101 246.88 228.861C245.029 241.852 223.4 275.366 208.754 281.258C207.481 281.786 206.119 282.065 204.741 282.079ZM201.611 279.741C203.25 280.985 205.474 281.121 208.22 280.015C221.338 274.744 243.612 242.262 245.55 228.637C245.774 227.071 245.799 225.032 244.706 224.174C243.977 223.626 243.143 223.232 242.257 223.018C241.37 222.804 240.449 222.775 239.55 222.931C232.096 223.913 221.239 233.647 214.394 242.821L211.45 246.7C201.014 260.374 192.008 272.233 201.611 279.766V279.741Z" fill="#231F20"/>
<path d="M64.015 123.719C69.4763 123.719 73.9036 120.903 73.9036 117.429C73.9036 113.955 69.4763 111.139 64.015 111.139C58.5537 111.139 54.1264 113.955 54.1264 117.429C54.1264 120.903 58.5537 123.719 64.015 123.719Z" fill="white"/>
<path d="M174.392 123.719C179.853 123.719 184.281 120.903 184.281 117.429C184.281 113.955 179.853 111.139 174.392 111.139C168.931 111.139 164.504 113.955 164.504 117.429C164.504 120.903 168.931 123.719 174.392 123.719Z" fill="white"/>
</svg>
