<svg width="12" height="13" viewBox="0 0 12 13" fill="none" xmlns="http://www.w3.org/2000/svg">
<path d="M9.2415 8.88353C8.55808 9.04763 7.84464 9.03968 7.16505 8.86039C6.48546 8.6811 5.86094 8.33606 5.34742 7.85619C4.8339 7.37631 4.44741 6.77656 4.22256 6.11066C3.9977 5.44475 3.94151 4.73348 4.059 4.04053C4.04113 4.05779 4.02227 4.07398 4.0025 4.08903C3.8625 4.19553 3.6875 4.23503 3.3375 4.31403L3.02 4.38603C1.79 4.66453 1.175 4.80353 1.0285 5.27403C0.882499 5.74403 1.3015 6.23453 2.14 7.21503L2.357 7.46853C2.595 7.74703 2.7145 7.88653 2.768 8.05853C2.8215 8.23103 2.8035 8.41703 2.7675 8.78853L2.7345 9.12703C2.608 10.4355 2.5445 11.0895 2.9275 11.38C3.3105 11.671 3.8865 11.406 5.0375 10.8755L5.336 10.7385C5.663 10.5875 5.8265 10.5125 6 10.5125C6.1735 10.5125 6.337 10.5875 6.6645 10.7385L6.962 10.8755C8.1135 11.4055 8.6895 11.6705 9.072 11.3805C9.4555 11.0895 9.392 10.4355 9.2655 9.12703L9.2415 8.88353Z" fill="#FFB800"/>
<path opacity="0.5" d="M4.5765 3.204L4.4125 3.498C4.2325 3.821 4.1425 3.9825 4.0025 4.089C4.0225 4.074 4.041 4.058 4.059 4.0405C3.94148 4.7335 3.99767 5.44484 4.22255 6.11079C4.44742 6.77675 4.83397 7.37653 5.34755 7.85642C5.86113 8.33632 6.48572 8.68134 7.16538 8.86058C7.84504 9.03983 8.55855 9.0477 9.242 8.8835L9.232 8.7885C9.1965 8.417 9.1785 8.231 9.232 8.0585C9.2855 7.8865 9.4045 7.747 9.643 7.4685L9.86 7.215C10.6985 6.235 11.1175 5.7445 10.971 5.274C10.825 4.8035 10.21 4.664 8.98 4.386L8.662 4.314C8.3125 4.235 8.1375 4.1955 7.997 4.089C7.857 3.9825 7.767 3.821 7.587 3.498L7.4235 3.204C6.79 2.068 6.4735 1.5 6 1.5C5.5265 1.5 5.21 2.068 4.5765 3.204Z" fill="#FFB800"/>
</svg>
