<svg width="12" height="12" viewBox="0 0 12 12" fill="none" xmlns="http://www.w3.org/2000/svg">
<path d="M5.99999 2.9998C5.4 1.4998 2.16431 0.599814 1.2 3.2998C-2.48551e-05 6.65978 3.9 9.29979 6 10.1998C11.7 7.49977 11.82 3.05977 9.89999 2.09977C7.97999 1.13977 6.49999 2.29979 5.99999 2.9998Z" fill="#FFE2E5"/>
<path d="M6 2.74999L5.73 3.00999C5.76498 3.04629 5.80692 3.07515 5.85331 3.09487C5.8997 3.11459 5.94959 3.12475 6 3.12475C6.05041 3.12475 6.1003 3.11459 6.14669 3.09487C6.19308 3.07515 6.23502 3.04629 6.27 3.00999L6 2.74999ZM3.5005 8.20999C3.42359 8.14674 3.3247 8.11663 3.22558 8.12629C3.12647 8.13595 3.03525 8.18458 2.972 8.26149C2.90875 8.33841 2.87864 8.4373 2.88829 8.53641C2.89795 8.63552 2.94659 8.72674 3.0235 8.78999L3.5005 8.20999ZM1.171 6.70549C1.19464 6.7487 1.22655 6.78682 1.26493 6.81769C1.3033 6.84856 1.34738 6.87157 1.39464 6.88541C1.44191 6.89925 1.49143 6.90364 1.5404 6.89833C1.58936 6.89303 1.6368 6.87813 1.68 6.85449C1.7232 6.83085 1.76133 6.79894 1.7922 6.76057C1.82307 6.72219 1.84608 6.67812 1.85992 6.63085C1.87375 6.58359 1.87814 6.53406 1.87284 6.4851C1.86753 6.43614 1.85264 6.3887 1.829 6.34549L1.171 6.70549ZM1.375 4.56849C1.375 3.49349 1.9825 2.59149 2.812 2.21199C3.618 1.84349 4.701 1.94099 5.73 3.00999L6.27 2.49049C5.05 1.22199 3.632 1.01249 2.5 1.52999C1.393 2.03649 0.625 3.21249 0.625 4.56849H1.375ZM4.2485 9.74999C4.505 9.95199 4.78 10.167 5.0585 10.33C5.337 10.4925 5.655 10.625 6 10.625V9.87499C5.845 9.87499 5.663 9.81499 5.437 9.68249C5.2105 9.55049 4.976 9.36849 4.713 9.16099L4.2485 9.74999ZM7.7515 9.74999C8.4645 9.18749 9.3765 8.54349 10.0915 7.73799C10.82 6.91799 11.375 5.90149 11.375 4.56849H10.625C10.625 5.66699 10.175 6.51399 9.531 7.23999C8.8735 7.97999 8.045 8.56349 7.287 9.16099L7.7515 9.74999ZM11.375 4.56849C11.375 3.21249 10.6075 2.03649 9.5 1.52999C8.368 1.01249 6.951 1.22199 5.73 2.48999L6.27 3.00999C7.299 1.94149 8.382 1.84349 9.188 2.21199C10.0175 2.59149 10.625 3.49299 10.625 4.56849H11.375ZM7.287 9.16099C7.024 9.36849 6.7895 9.55049 6.563 9.68249C6.337 9.81449 6.155 9.87499 6 9.87499V10.625C6.345 10.625 6.663 10.4925 6.9415 10.33C7.2205 10.167 7.495 9.95199 7.7515 9.74999L7.287 9.16099ZM4.713 9.16099C4.315 8.84749 3.9105 8.54749 3.5005 8.20999L3.0235 8.78999C3.4385 9.13149 3.8775 9.45749 4.2485 9.74999L4.7135 9.16099H4.713ZM1.829 6.34599C1.5278 5.8022 1.37147 5.19011 1.375 4.56849H0.625C0.625 5.38749 0.835 6.09149 1.171 6.70549L1.829 6.34549V6.34599Z" fill="#F64E60"/>
</svg>
