<svg width="18" height="16" viewBox="0 0 18 16" fill="none" xmlns="http://www.w3.org/2000/svg">
<path d="M8.99999 2.58332L8.54999 3.01666C8.60829 3.07714 8.67819 3.12526 8.75551 3.15812C8.83283 3.19098 8.91598 3.20792 8.99999 3.20792C9.084 3.20792 9.16715 3.19098 9.24447 3.15812C9.32179 3.12526 9.39169 3.07714 9.44999 3.01666L8.99999 2.58332ZM4.83416 11.6833C4.70597 11.5779 4.54115 11.5277 4.37596 11.5438C4.21077 11.5599 4.05875 11.641 3.95332 11.7692C3.8479 11.8973 3.79772 12.0622 3.81381 12.2273C3.82991 12.3925 3.91097 12.5446 4.03916 12.65L4.83416 11.6833ZM0.951656 9.17582C0.991053 9.24783 1.04425 9.31137 1.1082 9.36282C1.17215 9.41427 1.24562 9.45262 1.32439 9.47568C1.40317 9.49874 1.48571 9.50606 1.56732 9.49722C1.64892 9.48838 1.72798 9.46355 1.79999 9.42416C1.872 9.38476 1.93554 9.33156 1.98699 9.26761C2.03844 9.20366 2.07679 9.13019 2.09985 9.05142C2.12291 8.97264 2.13023 8.8901 2.12139 8.8085C2.11255 8.72689 2.08772 8.64783 2.04832 8.57582L0.951656 9.17582ZM1.29166 5.61416C1.29166 3.82249 2.30416 2.31915 3.68666 1.68666C5.02999 1.07249 6.83499 1.23499 8.54999 3.01666L9.44999 2.15082C7.41666 0.0366551 5.05332 -0.312512 3.16666 0.549988C1.32166 1.39416 0.0416565 3.35416 0.0416565 5.61416H1.29166ZM6.08082 14.25C6.50832 14.5867 6.96666 14.945 7.43082 15.2167C7.89499 15.4875 8.42499 15.7083 8.99999 15.7083V14.4583C8.74166 14.4583 8.43832 14.3583 8.06166 14.1375C7.68416 13.9175 7.29332 13.6142 6.85499 13.2683L6.08082 14.25ZM11.9192 14.25C13.1075 13.3125 14.6275 12.2392 15.8192 10.8967C17.0333 9.52999 17.9583 7.83582 17.9583 5.61416H16.7083C16.7083 7.44499 15.9583 8.85666 14.885 10.0667C13.7892 11.3 12.4083 12.2725 11.145 13.2683L11.9192 14.25ZM17.9583 5.61416C17.9583 3.35416 16.6792 1.39416 14.8333 0.549988C12.9467 -0.312512 10.585 0.0366551 8.54999 2.14999L9.44999 3.01666C11.165 1.23582 12.97 1.07249 14.3133 1.68666C15.6958 2.31915 16.7083 3.82166 16.7083 5.61416H17.9583ZM11.145 13.2683C10.7067 13.6142 10.3158 13.9175 9.93832 14.1375C9.56166 14.3575 9.25832 14.4583 8.99999 14.4583V15.7083C9.57499 15.7083 10.105 15.4875 10.5692 15.2167C11.0342 14.945 11.4917 14.5867 11.9192 14.25L11.145 13.2683ZM6.85499 13.2683C6.19166 12.7458 5.51749 12.2458 4.83416 11.6833L4.03916 12.65C4.73082 13.2192 5.46249 13.7625 6.08082 14.25L6.85582 13.2683H6.85499ZM2.04832 8.57666C1.54633 7.67034 1.28577 6.65019 1.29166 5.61416H0.0416565C0.0416565 6.97916 0.391656 8.15249 0.951656 9.17582L2.04832 8.57582V8.57666Z" fill="#333333"/>
</svg>
