<svg width="13" height="14" viewBox="0 0 13 14" fill="none" xmlns="http://www.w3.org/2000/svg">
<path d="M1.66667 6.99999C1.66667 7.32962 1.76442 7.65186 1.94755 7.92594C2.13069 8.20002 2.39099 8.41364 2.69553 8.53979C3.00007 8.66593 3.33518 8.69894 3.65849 8.63463C3.98179 8.57032 4.27876 8.41159 4.51185 8.1785C4.74493 7.94541 4.90367 7.64844 4.96798 7.32514C5.03229 7.00184 4.99928 6.66673 4.87313 6.36218C4.74699 6.05764 4.53337 5.79734 4.25929 5.6142C3.9852 5.43107 3.66297 5.33332 3.33333 5.33332M8.33333 3.33332L5 5.66665M8.33333 10.6667L5 8.33332M10 13C10.3296 13 10.6519 12.9022 10.926 12.7191C11.2 12.536 11.4137 12.2757 11.5398 11.9711C11.6659 11.6666 11.699 11.3315 11.6346 11.0082C11.5703 10.6849 11.4116 10.3879 11.1785 10.1548C10.9454 9.92172 10.6485 9.76299 10.3252 9.69868C10.0019 9.63437 9.66674 9.66738 9.3622 9.79352C9.05765 9.91967 8.79735 10.1333 8.61422 10.4074C8.43108 10.6815 8.33333 11.0037 8.33333 11.3333M11.4433 3.49999C11.2785 3.78546 11.0327 4.01566 10.7371 4.16145C10.4415 4.30725 10.1092 4.3621 9.7824 4.31908C9.45559 4.27605 9.14887 4.13707 8.90103 3.91973C8.6532 3.70238 8.47538 3.41642 8.39007 3.09801C8.30476 2.7796 8.31578 2.44305 8.42174 2.13091C8.52771 1.81876 8.72386 1.54505 8.98538 1.34439C9.24691 1.14372 9.56206 1.02512 9.891 1.00357C10.2199 0.982016 10.5479 1.05849 10.8333 1.22332" stroke="#1F73D6" stroke-width="1.5" stroke-linecap="round"/>
</svg>
